<svg width="21" height="20" viewBox="0 0 21 20" fill="none" xmlns="http://www.w3.org/2000/svg">
<g id="Frame" clip-path="url(#clip0_270_2412)">
<g id="Group">
<path id="Vector" d="M10.5 20C16.0228 20 20.5 15.5228 20.5 10C20.5 4.47715 16.0228 0 10.5 0C4.97715 0 0.5 4.47715 0.5 10C0.5 15.5228 4.97715 20 10.5 20Z" fill="#AEB1B7"/>
<path id="Vector_2" d="M16.743 5.76025H4.23305L8.76504 10.4792L10.0729 11.8035C9.36129 11.6408 9.31727 11.5394 9.00195 11.282C8.83656 11.147 8.51703 10.78 8.03172 10.2844L3.94629 6.11252V13.879L4.26914 14.2019L4.23301 14.2395L9.98 19.9865C10.1523 19.9953 10.3258 19.9999 10.5003 19.9999C16.0232 19.9999 20.5003 15.5227 20.5003 9.99986C20.5003 9.834 20.496 9.66916 20.4881 9.50529L16.743 5.76025Z" fill="#A4A7AE"/>
<path id="Vector_3" d="M3.94629 6.11252V13.879L7.73371 9.98006L3.94629 6.11252ZM17.0543 6.11252V13.879L13.2857 9.99576L17.0543 6.11252ZM4.23305 5.76025H16.743L11.8264 10.8797C11.6532 11.06 11.4454 11.2035 11.2154 11.3014C10.9854 11.3994 10.738 11.4499 10.488 11.4499C10.2381 11.4499 9.99064 11.3994 9.76066 11.3014C9.53067 11.2035 9.32286 11.06 9.14969 10.8797L4.23305 5.76025Z" fill="white"/>
<path id="Vector_4" d="M12.1094 11.152C11.6876 11.5912 11.0964 11.8432 10.4874 11.8432C9.87848 11.8432 9.28727 11.5913 8.86547 11.1521L8.03152 10.2837L4.23242 14.2394H16.7424L12.9433 10.2837L12.1094 11.152Z" fill="white"/>
</g>
</g>
<defs>
<clipPath id="clip0_270_2412">
<rect width="20" height="20" fill="white" transform="translate(0.5)"/>
</clipPath>
</defs>
</svg>
