<svg width="24" height="25" viewBox="0 0 24 25" fill="none" xmlns="http://www.w3.org/2000/svg">
<g id="Frame" clip-path="url(#clip0_108_2023)">
<g id="Group">
<path id="Vector" d="M12 24.6094C18.6274 24.6094 24 19.2368 24 12.6094C24 5.98196 18.6274 0.609375 12 0.609375C5.37258 0.609375 0 5.98196 0 12.6094C0 19.2368 5.37258 24.6094 12 24.6094Z" fill="url(#paint0_linear_108_2023)"/>
<g id="Group_2">
<path id="Vector_2" d="M14.5495 5.94287H9.4562C7.1842 5.94287 5.33887 7.7882 5.33887 10.0602V15.1535C5.33887 17.4255 7.1842 19.2709 9.4562 19.2709H14.5495C16.8215 19.2709 18.6669 17.4255 18.6669 15.1535V10.0602C18.6669 7.7882 16.8215 5.94287 14.5495 5.94287ZM17.1789 15.1589C17.1789 16.6095 16.0002 17.7935 14.5442 17.7935H9.45087C8.0002 17.7935 6.8162 16.6149 6.8162 15.1589V10.0655C6.8162 8.61487 7.99487 7.43087 9.45087 7.43087H14.5442C15.9949 7.43087 17.1789 8.60954 17.1789 10.0655V15.1589Z" fill="white"/>
<path id="Vector_3" d="M11.9998 9.20166C10.1225 9.20166 8.5918 10.7323 8.5918 12.6097C8.5918 14.487 10.1225 16.0177 11.9998 16.0177C13.8771 16.0177 15.4078 14.487 15.4078 12.6097C15.4078 10.7323 13.8771 9.20166 11.9998 9.20166ZM11.9998 14.679C10.8585 14.679 9.93046 13.751 9.93046 12.6097C9.93046 11.4683 10.8585 10.5403 11.9998 10.5403C13.1411 10.5403 14.0691 11.4683 14.0691 12.6097C14.0691 13.751 13.1411 14.679 11.9998 14.679Z" fill="white"/>
<path id="Vector_4" d="M15.6677 9.57519C15.9817 9.52406 16.1948 9.22807 16.1437 8.9141C16.0925 8.60012 15.7966 8.38704 15.4826 8.43817C15.1686 8.48931 14.9555 8.78529 15.0067 9.09927C15.0578 9.41325 15.3538 9.62633 15.6677 9.57519Z" fill="white"/>
</g>
</g>
</g>
<defs>
<linearGradient id="paint0_linear_108_2023" x1="2.86288" y1="21.7465" x2="19.9162" y2="4.69316" gradientUnits="userSpaceOnUse">
<stop stop-color="#FEE411"/>
<stop offset="0.052" stop-color="#FEDB16"/>
<stop offset="0.138" stop-color="#FEC125"/>
<stop offset="0.248" stop-color="#FE983D"/>
<stop offset="0.376" stop-color="#FE5F5E"/>
<stop offset="0.5" stop-color="#FE2181"/>
<stop offset="1" stop-color="#9000DC"/>
</linearGradient>
<clipPath id="clip0_108_2023">
<rect width="24" height="24" fill="white" transform="translate(0 0.609375)"/>
</clipPath>
</defs>
</svg>
