<svg width="24" height="25" viewBox="0 0 24 25" fill="none" xmlns="http://www.w3.org/2000/svg">
<g id="Frame" clip-path="url(#clip0_108_2015)">
<g id="Group">
<g id="Layer 2">
<path id="77.TikTok" d="M12 0.609375C9.62663 0.609375 7.30655 1.31316 5.33316 2.63174C3.35977 3.95032 1.8217 5.82446 0.913451 8.01717C0.00519938 10.2099 -0.232441 12.6227 0.230582 14.9505C0.693605 17.2782 1.83649 19.4164 3.51472 21.0947C5.19295 22.7729 7.33115 23.9158 9.65892 24.3788C11.9867 24.8418 14.3995 24.6042 16.5922 23.6959C18.7849 22.7877 20.6591 21.2496 21.9776 19.2762C23.2962 17.3028 24 14.9828 24 12.6094C24 9.42678 22.7357 6.37453 20.4853 4.12409C18.2348 1.87366 15.1826 0.609375 12 0.609375ZM17.4095 11.272C16.339 11.3904 15.4216 10.9673 14.5042 10.4273C14.5042 10.5157 14.5311 13.2567 14.4853 14.5641C14.4395 15.9078 13.9595 17.0904 12.9063 17.9731C10.6737 19.8473 7.50474 18.8352 6.74843 15.9694C6.3379 14.4078 6.69474 13.001 7.92001 11.8878C8.61001 11.2562 9.46106 10.9752 10.3737 10.8583C10.5695 10.8331 10.7668 10.822 10.9784 10.8031V12.9252C10.71 12.9915 10.4384 13.0499 10.1716 13.1288C9.98647 13.1823 9.8059 13.2504 9.63159 13.3325C9.38841 13.4419 9.17367 13.6058 9.00402 13.8115C8.83437 14.0172 8.71436 14.2592 8.65329 14.5188C8.59222 14.7783 8.59173 15.0484 8.65185 15.3082C8.71198 15.568 8.83111 15.8104 9.00001 16.0167C9.20311 16.2976 9.47936 16.5173 9.79868 16.6521C10.118 16.7868 10.4682 16.8314 10.8111 16.781C11.5011 16.6973 11.9337 16.2631 12.1895 15.6394C12.3663 15.1458 12.4431 14.6219 12.4153 14.0983C12.4058 11.5215 12.4058 8.94622 12.4011 6.36938C12.4033 6.34287 12.407 6.31652 12.4121 6.29043H14.4726C14.7032 8.01464 15.5779 9.10727 17.4095 9.26201V11.272Z" fill="black"/>
</g>
</g>
</g>
<defs>
<clipPath id="clip0_108_2015">
<rect width="24" height="24" fill="white" transform="translate(0 0.609375)"/>
</clipPath>
</defs>
</svg>
