<svg width="24" height="25" viewBox="0 0 24 25" fill="none" xmlns="http://www.w3.org/2000/svg">
<g id="Frame" clip-path="url(#clip0_108_2030)">
<g id="Group">
<path id="Vector" d="M12 24.6094C5.3736 24.6094 0 19.2358 0 12.6094C0 5.98298 5.3736 0.609375 12 0.609375C18.6264 0.609375 24 5.98298 24 12.6094C24 19.2358 18.6264 24.6094 12 24.6094Z" fill="#25D366"/>
<path id="Vector_2" fill-rule="evenodd" clip-rule="evenodd" d="M17.6132 7.0221C16.1252 5.5317 14.1428 4.7109 12.0332 4.7085C7.68683 4.7085 4.14683 8.2461 4.14683 12.5949C4.14683 13.9845 4.50923 15.3429 5.20043 16.5381L4.08203 20.6253L8.26283 19.5285C9.41483 20.1573 10.7108 20.4885 12.0308 20.4885H12.0332C16.3796 20.4885 19.9172 16.9509 19.9196 12.6021C19.922 10.4949 19.1036 8.5125 17.6132 7.0221ZM12.0356 19.1565H12.0332C10.8572 19.1565 9.70283 18.8397 8.69723 18.2421L8.45723 18.1005L5.97563 18.7509L6.63803 16.3317L6.48203 16.0845C5.82683 15.0405 5.47883 13.8357 5.47883 12.5949C5.48123 8.9805 8.42123 6.0405 12.038 6.0405C13.79 6.0405 15.434 6.7245 16.6724 7.9629C17.9108 9.2013 18.5924 10.8501 18.59 12.5997C18.59 16.2165 15.6476 19.1565 12.0356 19.1565ZM15.6308 14.2461C15.434 14.1477 14.4644 13.6701 14.2844 13.6053C14.1044 13.5405 13.9724 13.5069 13.8404 13.7037C13.7084 13.9005 13.3316 14.3445 13.2164 14.4765C13.1012 14.6085 12.986 14.6253 12.7892 14.5269C12.5924 14.4285 11.9564 14.2197 11.2052 13.5477C10.6196 13.0245 10.2236 12.3789 10.1084 12.1821C9.99323 11.9853 10.0964 11.8773 10.1948 11.7789C10.2836 11.6901 10.3916 11.5485 10.49 11.4333C10.5884 11.3181 10.622 11.2365 10.6868 11.1045C10.7516 10.9725 10.7204 10.8573 10.67 10.7589C10.6196 10.6605 10.226 9.6909 10.0628 9.2949C9.90203 8.9109 9.74123 8.9637 9.61883 8.9565C9.50363 8.9517 9.37163 8.9493 9.24203 8.9493C9.11003 8.9493 8.89643 8.9997 8.71643 9.1965C8.53643 9.3933 8.02763 9.8709 8.02763 10.8405C8.02763 11.8101 8.73323 12.7485 8.83163 12.8781C8.93003 13.0101 10.2212 14.9997 12.1988 15.8541C12.6692 16.0581 13.0364 16.1781 13.322 16.2693C13.7948 16.4205 14.2244 16.3989 14.5628 16.3485C14.942 16.2909 15.7292 15.8709 15.8924 15.4125C16.0556 14.9517 16.0556 14.5581 16.0076 14.4765C15.9596 14.3949 15.8276 14.3469 15.6308 14.2461Z" fill="white"/>
</g>
</g>
<defs>
<clipPath id="clip0_108_2030">
<rect width="24" height="24" fill="white" transform="translate(0 0.609375)"/>
</clipPath>
</defs>
</svg>
