<svg width="24" height="25" viewBox="0 0 24 25" fill="none" xmlns="http://www.w3.org/2000/svg">
<g id="Frame" clip-path="url(#clip0_108_2019)">
<g id="Group">
<path id="Vector" d="M12 0.609375C5.37281 0.609375 0 5.98219 0 12.6094C0 19.2366 5.37281 24.6094 12 24.6094C18.6272 24.6094 24 19.2366 24 12.6094C24 5.98219 18.6272 0.609375 12 0.609375Z" fill="black"/>
<path id="Vector_2" d="M13.313 11.5236L18.45 5.55225H17.2327L12.7722 10.7371L9.20961 5.55225H5.10059L10.4879 13.3927L5.10059 19.6547H6.31797L11.0284 14.1792L14.7907 19.6547H18.8998L13.3127 11.5236H13.313ZM6.75661 6.46869H8.62643L17.2333 18.7799H15.3634L6.75661 6.46869Z" fill="white"/>
</g>
</g>
<defs>
<clipPath id="clip0_108_2019">
<rect width="24" height="24" fill="white" transform="translate(0 0.609375)"/>
</clipPath>
</defs>
</svg>
