<svg width="71" height="66" viewBox="0 0 71 66" fill="none" xmlns="http://www.w3.org/2000/svg">
<g id="kupha 1" clip-path="url(#clip0_108_1303)">
<g id="Layer 1">
<g id="Group">
<g id="Group_2">
<path id="Vector" d="M35.5039 59.84C52.0174 59.84 65.4042 46.6532 65.4042 30.3864C65.4042 14.1195 52.0174 0.932678 35.5039 0.932678C18.9904 0.932678 5.60352 14.1195 5.60352 30.3864C5.60352 46.6532 18.9904 59.84 35.5039 59.84Z" fill="white"/>
<path id="Vector_2" d="M35.5039 2.03071C39.3902 2.03071 43.1598 2.77995 46.7084 4.25842C50.1357 5.6865 53.2149 7.73142 55.8586 10.3357C58.5024 12.94 60.5783 15.9725 62.0281 19.3492C63.529 22.8442 64.2896 26.5575 64.2896 30.3864C64.2896 34.2153 63.529 37.9279 62.0281 41.4235C60.5783 44.7996 58.5024 47.8328 55.8586 50.437C53.2149 53.0413 50.1364 55.0862 46.7084 56.5143C43.1604 57.9928 39.3908 58.742 35.5039 58.742C31.6169 58.742 27.848 57.9928 24.2994 56.5143C20.872 55.0862 17.7929 53.0413 15.1491 50.437C12.5054 47.8328 10.4294 44.8003 8.97969 41.4235C7.4788 37.9285 6.7182 34.2153 6.7182 30.3864C6.7182 26.5575 7.4788 22.8448 8.97969 19.3492C10.4294 15.9731 12.5054 12.94 15.1491 10.3357C17.7929 7.73142 20.8714 5.6865 24.2994 4.25842C27.8473 2.77995 31.6169 2.03071 35.5039 2.03071ZM35.5039 0.932678C18.9902 0.932678 5.60352 14.1194 5.60352 30.3864C5.60352 46.6534 18.9902 59.84 35.5039 59.84C52.0176 59.84 65.4042 46.6534 65.4042 30.3864C65.4042 14.1194 52.0176 0.932678 35.5039 0.932678Z" fill="#595F5C"/>
</g>
<g id="Group_3">
<path id="Vector_3" d="M48.3325 24.5268C48.3325 24.5268 48.3273 24.5287 48.3247 24.5293C48.1902 24.5765 48.0401 24.5371 47.945 24.4318C45.5307 21.7642 42.5296 20.4718 38.8531 20.3749C31.7657 20.112 24.7754 27.069 28.9718 33.9207C33.121 40.6949 45.0154 40.5141 48.8243 33.5487C49.0158 33.198 49.4 31.8693 49.9626 32.2982C50.0426 32.3596 50.0891 32.4539 50.0944 32.554C50.2045 34.6558 48.3883 37.4112 47.0638 38.9736C34.6265 52.5911 12.1854 34.6002 26.0841 20.8174C32.5309 14.6748 44.6036 16.0506 48.5312 24.0514C48.6217 24.2361 48.5279 24.457 48.3319 24.5268H48.3325Z" fill="#EF1C28"/>
<path id="Vector_4" d="M39.845 29.2567C40.2587 29.7463 41.2403 29.8096 41.2219 30.4813C41.2003 31.2499 39.9748 31.9197 39.4214 32.3254L39.3683 33.5823C40.0194 34.4123 40.9931 33.4654 41.7944 33.5177C41.6416 34.0428 41.517 34.1087 41.1865 34.3625C41.0351 34.4794 40.8646 34.5053 40.6777 34.5498C40.5577 34.5782 40.4705 34.6248 40.5997 34.7423L43.031 35.8203C43.1117 35.8558 43.1903 35.8959 43.269 35.9353C43.3569 35.9792 43.2585 36.0774 43.2369 36.0774H34.5398C34.503 36.0774 34.4834 35.9954 34.5155 35.9766C35.482 35.4018 37.1619 34.6028 38.1382 34.1377C37.3245 33.9272 35.1096 33.3872 36.7403 32.5191C37.2766 32.1703 37.8858 31.9824 38.2877 31.4398C38.3211 31.1718 38.4097 30.0259 38.2156 29.8858C37.7068 29.7159 36.935 29.2819 36.9219 28.6495C36.739 28.3544 36.1849 28.3214 35.8721 28.1961C34.8355 27.7795 33.7785 27.0567 33.307 26.0395C33.0874 25.6138 32.9543 25.161 32.9287 24.6882C33.5615 24.6521 35.2905 24.7199 35.9528 24.6992C36.8648 24.6953 37.7854 24.6779 38.6975 24.6953C38.8044 24.6973 38.9106 24.6934 39.0168 24.6882C39.0457 24.6869 38.9906 24.6973 39.5591 24.6895C39.8351 24.6856 39.6575 23.9926 39.4916 23.7691C38.9808 23.1594 38.4621 24.0501 37.4124 23.7484C37.0943 23.678 36.8281 23.483 36.457 23.5928C36.1541 23.7736 35.8105 24.136 35.7102 24.4609C35.5994 24.5377 35.2046 24.3343 35.2486 24.1728C35.2794 24.0585 35.9292 23.7833 36.0879 23.5056C36.2229 23.2698 35.9836 23.2627 35.9364 23.1542C35.7823 22.8177 36.0564 22.6995 36.3291 22.6536C36.3724 22.5645 36.4472 22.5354 36.5652 22.5141C37.017 22.4444 37.352 22.0949 37.7717 21.9593C38.7552 21.9645 41.2318 23.0412 41.4226 24.1218C41.4488 24.3013 41.3505 24.581 41.5321 24.665L44.4473 24.6986C44.3614 27.0322 41.8822 28.3647 39.7545 28.6088C39.3827 28.6528 39.702 29.0868 39.845 29.2554V29.2567Z" fill="#121213"/>
</g>
<g id="Group_4">
<path id="Vector_5" d="M50.7125 9.27577C51.8213 10.1871 50.9709 11.7928 51.2331 13.0162C51.4351 13.1602 52.359 14.5276 52.6717 14.4049L53.1924 12.6164C53.8677 10.7814 55.2303 13.0142 55.5437 13.8378C55.6342 14.826 54.9162 16.101 54.8952 17.0763C55.0322 17.5426 55.482 18.0826 55.604 18.5903L55.8171 18.5496C56.2945 18.0012 56.6171 17.2462 57.2026 16.7999C58.4412 16.1126 58.8825 18.9585 58.4235 19.6302C58.1074 20.1928 57.6229 20.7773 57.2806 21.3405C56.9705 21.8501 56.821 21.896 57.2341 22.4011C57.3468 22.5387 57.4537 22.7615 57.6465 22.6336C58.0642 22.2396 58.4314 21.7378 58.8569 21.3599C59.5493 20.745 60.0654 20.6191 60.3466 21.6603C60.5217 22.3074 60.6404 23.3002 60.226 23.8705L58.4399 25.8767C58.2484 26.1841 58.4399 26.5258 58.3861 26.8694C59.1926 26.7467 59.9945 25.2437 60.9223 25.6028C61.5197 26.126 61.3551 28.0883 60.746 28.6134C60.0988 29.2225 59.2398 29.7353 58.6471 30.4044C58.5232 30.6014 58.5343 31.0013 58.4805 31.239C58.5546 31.3126 60.0385 30.4238 60.2948 30.3534C61.8679 29.9459 61.201 32.0586 60.8968 32.8059C60.3257 33.7302 58.5284 34.1675 57.8196 35.0284C57.8163 35.3443 59.2444 34.3709 59.5526 34.411C60.0175 34.3244 60.3296 34.3832 60.4312 34.8721C60.4988 35.6052 60.1847 36.9403 59.4851 37.3666C58.7323 37.8517 57.6996 38.1953 56.9036 38.6364C56.6479 38.8083 56.8983 39.3689 56.9934 39.6066C57.9875 41.8937 57.6767 39.9089 59.2103 41.2343C59.5723 42.081 58.4923 43.2656 57.5855 42.5558C56.1922 41.6683 56.4151 40.06 56.3449 38.6642L54.1838 36.3299C53.8087 35.7906 53.831 33.3349 54.8473 33.4899C55.6912 33.8277 56.2066 34.6797 56.9351 35.2022C57.1429 35.3126 57.2964 34.9994 57.438 34.8818C56.021 33.176 54.2048 32.9215 54.9522 30.2049C55.5345 29.0158 57.0098 30.9011 57.5691 31.2318C57.9225 31.3287 58.0189 30.5246 57.8163 30.334C57.0078 29.7747 56.0754 29.3297 55.3404 28.6818C54.9588 28.2575 54.4126 25.8638 55.3935 25.8476C56.0492 25.8476 57.1534 26.7609 57.6524 26.9612C57.7783 26.936 57.7468 26.2294 57.6327 26.1105C56.9541 25.7656 56.2197 25.5214 55.5352 25.1888C54.8867 24.8736 54.705 24.8013 54.3975 24.1244C53.3825 21.5104 54.4375 21.7487 56.4964 22.591C56.3928 21.7274 54.1385 21.7184 53.4382 21.3037C52.8376 20.942 51.6416 19.1574 52.3629 18.5431C53.191 18.2312 54.0126 18.7259 54.8336 18.8596C54.8991 18.87 55.067 18.9178 55.0329 18.8034C54.8604 18.5812 54.5805 17.6977 54.3608 17.6053C53.5123 17.4264 52.0567 17.6912 51.1505 17.6059C50.5925 17.3327 48.5841 15.8827 49.6673 15.2361C50.1814 14.9093 50.8856 15.0456 51.4718 14.9681C51.6626 14.9429 51.8338 14.815 52.06 14.8731L52.0364 14.7336L51.0948 13.7086C50.0935 13.5232 48.4595 14.5754 47.5265 14.3881C47.1213 14.3073 45.8237 13.5348 45.6322 13.186C45.1988 12.3974 46.1974 12.3102 46.5115 11.8949C46.7475 11.5829 46.8439 11.3588 46.4551 11.1663C45.4919 10.6903 44.1136 10.4797 43.2592 9.75826C42.0462 8.48971 45.6066 8.09635 47.1285 10.0844C47.5232 10.5107 47.7743 11.2161 48.4884 10.8195C48.6458 10.1774 48.3337 8.59305 49.07 8.27979C49.6103 8.12413 50.4306 8.83591 50.7099 9.27577H50.7125ZM50.4417 11.4641C51.2049 10.7852 50.2889 8.88048 49.447 9.76407C48.7612 10.4029 49.4752 12.1591 50.4417 11.4641ZM48.9316 12.5647C48.3507 11.9782 46.7239 12.3897 47.0223 13.3992C47.0806 13.5968 47.657 13.8255 47.8517 13.841C48.4904 13.8733 49.5185 13.2552 48.9316 12.5647ZM54.0795 13.3042C52.654 13.8416 53.7536 16.5409 54.7765 14.9674C55.1667 14.4049 54.9201 13.2003 54.0795 13.3042ZM51.2463 15.6269C50.1257 16.1068 50.9132 17.1428 51.8475 17.1067C52.6062 17.0744 53.2442 16.411 52.4829 15.8304C52.1695 15.5914 51.6259 15.5436 51.2463 15.6269ZM57.2413 18.1395C56.5712 18.2499 56.0335 19.4642 56.5961 19.9615C57.7448 20.8161 58.7822 18.0038 57.2413 18.1395ZM53.7012 19.3938C53.1497 19.5042 53.2363 20.0694 53.4068 20.4524C53.614 20.9175 54.6585 21.1939 55.0598 20.8251C55.7955 20.1488 54.526 19.2278 53.7012 19.3938ZM59.1297 22.2739C58.4012 22.4638 57.7101 23.6406 58.4569 24.1715C59.5133 24.6992 60.6607 22.3223 59.1297 22.2739ZM55.4001 23.1129C54.1057 23.5443 55.8545 25.3948 56.7298 24.6088C57.3888 23.866 56.1725 22.9075 55.4001 23.1129ZM59.7421 26.8785C59.1854 26.9922 58.5553 27.8557 58.849 28.3879C59.272 29.1566 60.3984 28.459 60.5368 27.8002C60.6647 27.1885 60.4378 26.7364 59.7421 26.8785ZM56.1568 27.0626C54.9404 27.3952 55.9089 28.7535 56.7344 28.8918C58.2065 28.8834 57.2478 26.9308 56.1568 27.0626ZM55.9679 31.1072C55.084 31.2725 55.5456 32.72 56.3226 32.9687C57.2026 33.2509 57.4845 32.3867 57.0846 31.7531C56.9088 31.4747 56.303 31.0439 55.9679 31.1065V31.1072ZM59.6005 31.4818C59.0405 31.5852 58.3658 32.2821 58.5487 32.8679C58.7048 33.3672 59.4424 33.3026 59.8168 33.0895C60.6771 32.5999 60.7309 31.2732 59.6005 31.4818ZM56.0099 35.2526C55.1903 34.4116 54.1405 35.1092 54.7909 36.151C55.6551 37.5391 57.0393 36.4081 56.0099 35.2526ZM57.9776 35.8565C57.4072 36.4714 57.4878 37.3427 58.5035 37.1877C59.1631 37.1205 60.0345 36.1019 59.2595 35.6072C58.9061 35.3818 58.2655 35.5943 57.9776 35.8558V35.8565Z" fill="#0EA859"/>
<path id="Vector_6" d="M13.2208 26.9612C13.2405 26.9902 13.3848 26.9915 13.4418 26.9741C13.7087 26.8933 14.3847 26.3766 14.6994 26.2093C15.0312 26.033 15.2942 25.8786 15.6961 25.9413C16.0003 25.9891 16.0312 26.1577 16.0548 26.4244C16.1256 27.2292 16.0344 28.366 15.3407 28.8853C14.6975 29.3671 13.7447 29.8018 13.15 30.3069C13.0904 30.3579 13.0058 30.449 12.9946 30.5259C12.9848 30.5911 13.0897 31.1524 13.1231 31.206C13.2661 31.434 13.6326 31.1014 13.7631 31.0032C14.2155 30.6602 14.883 29.9065 15.4627 29.8858C15.7302 29.8761 15.8272 29.9181 15.9499 30.1525C16.1236 30.4845 16.0954 31.6342 16.0469 32.0444C15.961 32.7723 15.3525 33.0462 14.8725 33.4906C14.5113 33.8251 14.0077 34.2547 13.691 34.6041C13.611 34.6926 13.5212 34.7927 13.5585 34.9219C13.5867 35.0201 13.9211 35.3876 14.068 35.2571L15.6777 33.7257C16.1295 33.5067 16.538 33.4176 16.7557 33.9614C16.9308 34.3993 16.9924 35.9166 16.7544 36.3196C16.1695 36.9255 15.5827 37.5242 15.0391 38.1636C14.8975 38.3309 14.6221 38.5034 14.565 38.7198C14.4654 39.097 14.5716 39.8055 14.5447 40.2338C14.4995 40.9572 14.3526 41.4855 13.8811 42.0442C13.4792 42.5202 13.0445 42.8316 12.3698 42.6514C12.0406 42.5635 11.6937 42.0571 11.7206 41.731C11.7547 41.3189 12.116 40.8131 12.5481 40.7311C12.9232 40.6607 13.0995 40.9145 13.3828 40.6697C13.6661 40.4249 14.1244 39.3676 14.1919 39.0014C14.2195 38.8522 14.228 38.7327 14.089 38.6332L11.4124 37.3182C10.9226 36.9784 10.6059 35.8649 10.5358 35.2997C10.4984 35.002 10.5686 34.4562 10.9357 34.3993C11.678 34.2844 12.3914 34.8528 13.0602 35.0911C13.2917 35.1434 12.9127 34.7707 12.8602 34.73C12.1901 34.2094 11.2544 33.8258 10.5548 33.3284C9.9863 32.9241 9.79353 32.0586 9.73648 31.392C9.71026 31.0891 9.67091 30.6389 9.9227 30.4251C10.5522 29.8916 11.8413 31.0859 12.4675 31.2351C12.4963 31.2054 12.4091 30.5084 12.3671 30.4277L10.084 28.4467C9.71616 27.9862 9.64403 26.8565 9.73452 26.2881C9.88008 25.3697 10.4086 25.3936 11.0931 25.8257C11.3259 25.9723 12.3848 26.8946 12.5376 26.8649C12.6058 26.8514 12.6504 26.3779 12.6471 26.2843C12.6438 26.177 12.6012 26.0181 12.5553 25.9193L10.7213 23.8208C10.421 23.3506 10.4663 22.7331 10.5377 22.1983C10.5935 21.783 10.7922 20.7767 11.3836 20.8871C12.2039 21.192 12.7081 22.022 13.3166 22.6123C13.6156 22.7576 14.0667 22.0659 14.0044 21.8437C13.6241 21.1513 13.0943 20.5009 12.7028 19.8227C12.4216 19.335 12.373 19.0967 12.4209 18.5212C12.4504 18.1692 12.7684 17.0653 13.0366 16.8496C13.8267 16.2114 14.6804 18.0762 15.0863 18.4979C15.1709 18.5858 15.2528 18.7072 15.3925 18.6833C15.6115 18.1259 15.8725 17.5827 16.1859 17.0724C15.9721 16.5486 15.9223 15.975 15.7964 15.4267C15.681 14.9235 15.4063 14.4146 15.4987 13.8823C15.5577 13.5439 16.0364 12.7804 16.2711 12.5046C17.7071 10.8162 17.913 13.436 18.2763 14.3784C18.3654 14.5418 18.5412 14.3784 18.6448 14.2847C18.7916 14.1523 19.7503 13.1215 19.7726 13.0246C19.8558 12.0803 19.6965 11.0352 19.7804 10.1038C19.7909 9.98626 19.8093 9.91263 19.8532 9.80347C19.9994 9.44435 20.8558 8.7119 21.2013 8.48131C22.0262 7.93101 22.3232 8.72482 22.3776 9.40883C22.3966 9.64458 22.3239 10.8305 22.436 10.9093C22.5147 10.9648 22.8976 10.9726 23.0104 10.9596C23.4261 10.9138 23.6438 10.4177 23.912 10.1277C24.3054 9.70271 24.8706 9.21893 25.4201 9.01031C26.0777 8.76099 27.2127 8.60339 27.8048 9.03679C28.3117 9.40754 27.3806 9.94234 27.0927 10.0999C26.2285 10.5734 25.222 10.7988 24.3264 11.2102C24.1434 11.3898 24.2929 11.725 24.4155 11.9104C24.7158 12.3658 25.6981 12.3981 25.3145 13.1363C25.1047 13.5394 23.8398 14.2796 23.3815 14.348C22.8189 14.4326 21.2393 13.8339 20.5856 13.684C20.463 13.6563 20.0978 13.5639 20.0047 13.5768C19.8126 13.6046 19.7096 13.8733 19.5929 13.996C19.4585 14.1375 18.808 14.7375 18.7975 14.8538C18.7916 14.9145 18.8198 14.9351 18.8697 14.9558L20.5082 15.0617C21.0236 15.1793 21.8046 15.2368 21.539 15.9731C21.4721 16.1591 21.0059 16.7185 20.8466 16.8716C20.7246 16.9891 20.0512 17.5065 19.9266 17.5465C19.528 17.6731 18.6507 17.5297 18.2035 17.5187C17.8094 17.5091 17.414 17.5304 17.0199 17.5226C16.8003 17.5181 16.7091 17.3792 16.5262 17.5898C16.4246 17.7067 15.9807 18.5619 15.9026 18.7427C15.8115 18.9539 15.9171 18.9746 16.1125 18.9507C16.7839 18.8706 17.454 18.4818 18.2015 18.4928C19.4086 18.5102 18.4526 20.2173 18.0946 20.7153C17.7176 21.2398 17.4639 21.2688 16.8672 21.4587C16.3275 21.6305 15.7453 21.7468 15.2135 21.9218C14.8778 22.0323 14.5349 22.1615 14.4136 22.529C14.3913 22.5975 14.367 22.7047 14.4739 22.6821C15.1342 22.4696 15.7781 21.9903 16.5033 22.0749C16.8344 22.1137 16.9111 22.3662 16.9072 22.6582C16.8973 23.3222 16.5413 24.4938 15.9564 24.8859C15.4279 25.2398 14.2431 25.6584 13.5998 25.9581C13.5264 25.9923 13.4084 25.9865 13.3481 26.024C13.3225 26.0401 13.2228 26.2694 13.2228 26.2836C13.2228 26.3889 13.2038 26.9295 13.2228 26.9579L13.2208 26.9612ZM21.0918 9.53736C20.301 9.56966 19.9201 11.0287 20.6538 11.5267C21.4367 12.0583 22.299 10.4216 21.4964 9.7208C21.4079 9.64329 21.2098 9.53284 21.0918 9.53736ZM22.0609 12.5628C21.9475 12.6868 21.8819 12.9897 21.9272 13.1544C22.0308 13.5355 22.7219 13.8694 23.095 13.841C23.333 13.8229 23.8838 13.5859 23.9605 13.3417C24.2595 12.3884 22.5901 11.9834 22.0609 12.5628ZM16.7006 13.303C15.8233 13.4774 15.8325 14.992 16.6239 15.3569C17.2108 15.6276 17.6396 14.8673 17.6107 14.3868C17.5871 13.9857 17.1773 13.208 16.7006 13.303ZM18.9188 15.6282C18.4035 15.7206 17.8986 16.3581 18.3641 16.8037C19.1687 17.573 20.8794 16.703 20.1135 15.8711C19.846 15.5804 19.29 15.5617 18.9188 15.6288V15.6282ZM13.3972 18.1395C12.8222 18.2848 12.95 19.2859 13.2431 19.6631C13.5362 20.0403 14.0824 20.373 14.4391 19.9099C14.9853 19.2013 14.2627 17.9205 13.3972 18.1395ZM16.7478 19.3938C16.218 19.4829 15.4338 20.1992 15.8699 20.7476C16.2056 21.17 17.0449 20.9627 17.3983 20.6391C17.7517 20.3155 17.972 19.9286 17.5386 19.5688C17.3039 19.3738 17.0475 19.3434 16.7472 19.3938H16.7478ZM11.5383 23.9228C12.5186 24.842 13.3041 23.7116 12.5599 22.7538C12.2176 22.3133 11.5521 22.0252 11.1987 22.6207C10.9666 23.0121 11.2315 23.6341 11.539 23.9222L11.5383 23.9228ZM15.2883 23.0664C14.664 23.0993 13.6575 24.0042 14.2155 24.5629C15.0673 25.4155 16.8901 23.5689 15.5899 23.1168C15.483 23.0793 15.4037 23.0599 15.2883 23.0664ZM11.04 26.832C10.863 26.8359 10.5666 26.9541 10.4722 27.1129C10.185 27.6 10.5928 28.2626 11.0341 28.5333C11.377 28.7438 11.6931 28.8627 12.019 28.543C12.3684 28.2006 12.2209 27.7388 11.9672 27.3816C11.7973 27.1427 11.341 26.8249 11.04 26.8313V26.832ZM14.5781 27.1129C13.872 27.2105 13.1081 28.1522 13.7408 28.7503L14.5919 28.7529C15.3833 28.459 15.7905 26.9463 14.5781 27.1129ZM14.9093 31.1085C14.2149 31.1498 13.3946 32.1749 13.8818 32.7956C14.5349 33.6275 16.1623 31.941 15.2181 31.2467C15.123 31.1769 15.0312 31.1014 14.9093 31.1085ZM11.0866 31.4792C10.9089 31.5025 10.6066 31.7156 10.5522 31.8861C10.341 32.5495 11.377 33.4628 12.0288 33.2018C12.0931 33.176 12.3907 32.8912 12.4084 32.8324C12.5999 32.1955 11.716 31.3966 11.0859 31.4792H11.0866ZM15.7099 34.8276C15.0863 34.8864 14.4195 35.8022 14.6594 36.3997C15.0253 37.3098 16.3643 36.4378 16.3865 35.5852C16.3964 35.2119 16.1256 34.7888 15.7099 34.8276ZM11.84 35.5729C11.2413 35.6789 11.4026 36.4333 11.7331 36.7717C12.5671 37.6256 13.9093 37.0947 13.1264 36.0503C12.8156 35.6356 12.354 35.4819 11.84 35.5729Z" fill="#0EA859"/>
</g>
<g id="Group_5">
<path id="Vector_7" d="M41.9766 4.79323L41.989 4.83457L41.9949 4.81777C41.989 4.80938 41.9831 4.80162 41.9766 4.79323Z" fill="#121213"/>
<path id="Vector_8" d="M41.4154 6.78841C41.3564 6.88078 41.3006 6.96797 41.2495 7.05194C40.3131 8.59306 39.2929 10.2336 38.2169 11.9285C37.9231 12.3909 37.2065 13.5587 37.1993 13.5704L36.7947 14.2298C36.6058 14.877 35.958 15.3472 35.2191 15.3472C35.0158 15.3472 34.8204 15.3111 34.6361 15.2394C34.4801 15.1787 34.2342 14.9997 34.0598 14.8499C33.7477 14.5818 33.6546 14.4068 33.6296 14.2899L33.2566 13.6828C33.2493 13.6711 32.5327 12.5033 32.2389 12.0415C31.1629 10.3467 30.1427 8.70544 29.207 7.16497C29.1552 7.08036 29.0994 6.99316 29.0404 6.90145C28.9821 6.81102 28.9218 6.71672 28.8621 6.61919C28.5618 6.12701 28.2851 5.55345 28.4615 4.96439L28.4844 4.88753L28.4936 4.85717L28.5047 4.85136C28.8011 4.33981 29.4063 3.97423 30.0758 3.93224C33.5169 3.7191 37.1848 4.0963 40.6495 3.93547C41.26 3.98521 41.5977 4.29395 41.9275 4.72735L41.9622 4.74479L41.9766 4.79323L41.9891 4.83457L41.9944 4.852C42.2061 5.55733 41.7675 6.24004 41.4154 6.78841Z" fill="#595F5C"/>
<path id="Vector_9" d="M36.5735 7.72368C36.5951 7.80894 36.5761 12.0344 36.5735 14.0251C36.4417 14.8331 35.4916 15.2956 34.733 14.9997C34.5304 14.9209 33.8832 14.4249 33.8832 14.2092C33.8832 14.2092 33.8779 7.72368 33.8832 7.72368H36.5735Z" fill="#FEFEFE"/>
<path id="Vector_10" d="M36.9746 13.4367C36.9746 13.4367 37.6965 12.2611 37.9942 11.7922C39.0151 10.1846 40.0374 8.54461 41.0242 6.92017C41.3796 6.33563 41.9513 5.62256 41.7428 4.92563C41.6897 4.89915 41.632 4.90238 41.575 4.90109C41.2078 4.8914 39.783 5.83894 39.3659 6.07663C38.484 6.57849 37.7988 7.03644 36.9753 7.62485V13.4373L36.9746 13.4367Z" fill="#0EA859"/>
<path id="Vector_11" d="M33.4817 13.549C33.4817 13.549 32.7598 12.3735 32.4621 11.9046C31.4412 10.2969 30.4189 8.657 29.4321 7.03256C29.0767 6.44802 28.505 5.73495 28.7135 5.03802C28.7666 5.01154 28.8243 5.01477 28.8813 5.01348C29.2485 5.00379 30.6734 5.95133 31.0904 6.18902C31.9723 6.69088 32.6575 7.14882 33.481 7.73724V13.5497L33.4817 13.549Z" fill="#EF1C28"/>
</g>
<g id="Group_6">
<path id="Vector_12" d="M1.73759 32.4093L0.0478658 32.5392L0 31.9359L4.82067 31.5651L4.86854 32.1684L2.43132 32.3557L5.05607 34.5363L5.11836 35.3191L2.99849 33.5267L0.298997 35.7028L0.241952 34.9865L2.58082 33.125L1.73825 32.4093H1.73759Z" fill="#595F5C"/>
<path id="Vector_13" d="M0.964261 39.1706L0.861972 38.641L1.39964 38.5402C0.946557 38.3768 0.673788 38.0577 0.58199 37.583C0.519043 37.2562 0.551172 36.9804 0.679689 36.7556C0.808205 36.5308 1.01147 36.3919 1.29014 36.3396L3.85784 35.8578L3.96013 36.3874L1.61143 36.8279C1.4121 36.8654 1.26522 36.9584 1.17015 37.107C1.07507 37.2555 1.04819 37.437 1.0895 37.6502C1.14327 37.9292 1.28949 38.132 1.52685 38.2586C1.76421 38.3852 2.05796 38.4162 2.40745 38.3503L4.27159 38.0002L4.37388 38.5299L0.963605 39.17L0.964261 39.1706Z" fill="#595F5C"/>
<path id="Vector_14" d="M2.22016 43.4419L2.03001 42.8522L4.41609 41.3738L1.61299 41.5585L1.4248 40.9753L4.4292 38.9962L4.6128 39.5672L2.25426 41.0444L5.02916 40.8609L5.23374 41.4952L2.86471 42.9401L5.64814 42.7825L5.83632 43.3657L2.21885 43.4419H2.22016Z" fill="#595F5C"/>
<path id="Vector_15" d="M4.62736 47.7972L4.2228 47.9807C4.11002 47.8657 4.03527 47.7701 3.99921 47.6939C3.8484 47.3716 3.91593 47.1287 4.20116 46.9647C3.7907 46.882 3.47268 46.5991 3.24647 46.116C3.09041 45.7814 3.06287 45.4791 3.16451 45.2085C3.25237 44.9734 3.42547 44.797 3.68316 44.6801C3.97757 44.5464 4.2523 44.5464 4.50803 44.6795C4.65228 44.7557 4.85423 44.9592 5.11389 45.2912L5.82138 46.2006L6.08825 46.0869C6.40299 45.9442 6.45151 45.6386 6.23316 45.1717C6.02399 44.7247 5.72827 44.5684 5.34469 44.7027L5.10995 44.2009C5.39387 44.0866 5.63844 44.0588 5.84368 44.1169C6.19316 44.217 6.4797 44.507 6.70395 44.9863C7.0672 45.764 6.96295 46.2826 6.39053 46.5423L4.62999 47.3406C4.47459 47.411 4.42803 47.513 4.49032 47.6455C4.49753 47.6616 4.52966 47.6984 4.58671 47.7559C4.60638 47.7766 4.61949 47.7895 4.62736 47.796V47.7972ZM5.41289 46.3931L4.83128 45.6903C4.62408 45.4378 4.45623 45.2757 4.32902 45.204C4.20116 45.1323 4.06805 45.1284 3.92905 45.191C3.60579 45.3377 3.54022 45.616 3.73234 46.0275C3.86807 46.3175 4.0792 46.5197 4.36508 46.634C4.54409 46.7089 4.70932 46.7121 4.86013 46.6437L5.41223 46.3931H5.41289Z" fill="#595F5C"/>
<path id="Vector_16" d="M7.91727 47.4769L4.88862 49.1478L4.62109 48.6776L7.64975 47.0067L7.91727 47.4769ZM8.97294 46.5972C9.01884 46.6786 9.02933 46.7632 9.00442 46.8504C8.9795 46.9376 8.9277 47.0034 8.84902 47.0467C8.7664 47.0919 8.6805 47.1029 8.59198 47.0777C8.50281 47.0532 8.43593 47.0002 8.38937 46.9188C8.34544 46.8413 8.33561 46.7587 8.36118 46.6715C8.3861 46.5836 8.43986 46.5171 8.52248 46.4719C8.60116 46.4286 8.68444 46.4189 8.77361 46.4441C8.86213 46.4686 8.92901 46.5197 8.97294 46.5972Z" fill="#595F5C"/>
<path id="Vector_17" d="M9.11046 49.392L8.73409 49.6271L8.35444 49.0374L6.40374 50.2555C6.33555 50.2982 6.29228 50.3576 6.27523 50.4345C6.25752 50.5107 6.27326 50.5869 6.32178 50.6618C6.36768 50.7329 6.45489 50.831 6.58275 50.9557L6.20441 51.2625C6.01295 51.0565 5.87853 50.8937 5.80182 50.7736C5.56314 50.4028 5.59789 50.1212 5.90542 49.9287L8.06134 48.582L7.80824 48.1887L8.18461 47.9536L8.43771 48.3469L9.03636 47.9729L9.54059 48.2959L8.73081 48.8016L9.11046 49.3913V49.392Z" fill="#595F5C"/>
<path id="Vector_18" d="M9.5438 52.345L7.99243 53.6594L7.5918 53.2002L11.2584 50.0947L12.562 51.588C12.8937 51.9678 13.0373 52.3438 12.9928 52.7145C12.9554 53.0387 12.7757 53.3371 12.4551 53.6084C12.1305 53.8829 11.7837 53.9985 11.4132 53.9559C11.0716 53.9178 10.7785 53.7596 10.5346 53.4805L9.5438 52.3457V52.345ZM9.95886 51.9937L10.8001 52.9574C10.9909 53.1757 11.1968 53.2997 11.4184 53.3287C11.6394 53.3578 11.8525 53.2855 12.0577 53.1117C12.259 52.9412 12.362 52.7455 12.3659 52.5259C12.3698 52.3063 12.2767 52.0867 12.0859 51.8684L11.2447 50.9047L9.95951 51.9937H9.95886Z" fill="#595F5C"/>
<path id="Vector_19" d="M13.9378 53.0581L14.3476 53.4153L13.1221 54.7807C13.3837 54.7368 13.6047 54.7381 13.785 54.7852C13.9647 54.8324 14.1476 54.937 14.3332 55.0985C14.5863 55.3188 14.7292 55.5545 14.7626 55.8051C14.7961 56.0557 14.7154 56.2895 14.522 56.5053L12.8001 58.4242L12.3903 58.0671L13.9647 56.3122C14.126 56.1326 14.1876 55.953 14.1509 55.7728C14.1148 55.6055 14.0263 55.4602 13.8847 55.3368C13.6722 55.1521 13.4309 55.0811 13.1608 55.1237C12.8906 55.167 12.6395 55.3181 12.4067 55.5771L11.1452 56.9826L10.7354 56.6254L13.9378 53.0562V53.0581Z" fill="#595F5C"/>
<path id="Vector_20" d="M16.6356 60.5422L16.3845 60.9051C16.2278 60.8645 16.1137 60.8199 16.0429 60.7727C15.7452 60.5732 15.6757 60.3303 15.835 60.0455C15.4403 60.183 15.0194 60.1016 14.5728 59.802C14.264 59.5946 14.0824 59.3492 14.0279 59.0656C13.9807 58.8189 14.0365 58.5806 14.1965 58.3493C14.3787 58.0858 14.6148 57.9456 14.9033 57.9301C15.0672 57.9217 15.3465 57.9941 15.7419 58.1472L16.8238 58.5676L16.993 58.3351C17.1884 58.0529 17.0697 57.7667 16.6383 57.4774C16.2252 57.2003 15.8895 57.2164 15.6318 57.5264L15.1689 57.2158C15.3524 56.9742 15.5478 56.8256 15.7544 56.7714C16.1065 56.6803 16.5032 56.783 16.9464 57.0808C17.6644 57.5626 17.8461 58.0606 17.4907 58.5734L16.3989 60.1514C16.3025 60.2909 16.3157 60.4013 16.4383 60.484C16.4534 60.4937 16.4999 60.5092 16.5779 60.5299C16.6055 60.5376 16.6238 60.5422 16.6343 60.5434L16.6356 60.5422ZM16.5753 58.9397L15.7091 58.6322C15.399 58.5205 15.1708 58.4669 15.0246 58.4701C14.8777 58.4733 14.761 58.5373 14.6751 58.6619C14.4745 58.9513 14.5643 59.2239 14.9439 59.4784C15.2115 59.6579 15.498 59.7244 15.8036 59.6773C15.9963 59.6508 16.1393 59.5701 16.233 59.4344L16.5753 58.9397Z" fill="#595F5C"/>
<path id="Vector_21" d="M18.8256 58.3345L19.2761 58.5767L18.9725 59.1257C19.379 58.8086 19.7737 58.753 20.1573 58.9591C20.2045 58.9842 20.2589 59.0211 20.3193 59.0689L20.0478 59.5597C19.7291 59.3937 19.4872 59.3221 19.3213 59.344C19.0177 59.3828 18.7482 59.6146 18.5135 60.039L17.6506 61.5988L17.1641 61.3379L18.8256 58.3358V58.3345Z" fill="#595F5C"/>
<path id="Vector_22" d="M20.6949 59.3912L21.1729 59.5759L20.9906 60.0345C21.382 59.7806 21.7827 59.7335 22.1938 59.8917C22.5918 60.0455 22.8187 60.3141 22.8737 60.6978C23.0993 60.5803 23.298 60.515 23.4698 60.5034C23.6416 60.4918 23.8343 60.5266 24.0481 60.6087C24.6769 60.8515 24.8749 61.2643 24.6435 61.8462L23.696 64.2244L23.1806 64.0255L24.0488 61.8456C24.2166 61.4245 24.0992 61.1364 23.6966 60.9807C23.4868 60.9 23.277 60.9116 23.0659 61.0156C22.8547 61.1202 22.7052 61.2836 22.6167 61.5065L21.822 63.5004L21.3066 63.3014L22.1748 61.1215C22.3426 60.7004 22.2272 60.413 21.8292 60.2592C21.6155 60.1766 21.4024 60.1863 21.1906 60.2877C20.9781 60.3891 20.8273 60.5531 20.7368 60.7805L19.9421 62.775L19.4268 62.5754L20.6949 59.3925V59.3912Z" fill="#595F5C"/>
<path id="Vector_23" d="M28.1059 64.8206L28.0016 65.2475C27.8403 65.2643 27.7177 65.2624 27.6345 65.243C27.2843 65.1603 27.1322 64.9575 27.1781 64.6359C26.8581 64.9026 26.4358 64.9737 25.9106 64.849C25.5474 64.7631 25.289 64.5971 25.1363 64.351C25.0031 64.1372 24.9697 63.8944 25.0359 63.6225C25.1113 63.3118 25.2818 63.0993 25.5461 62.9837C25.6962 62.9191 25.9834 62.8887 26.4083 62.8932L27.5715 62.9081L27.6456 62.6316C27.7263 62.2997 27.5132 62.0736 27.005 61.9534C26.5191 61.8385 26.2109 61.9709 26.0818 62.3507L25.5369 62.2215C25.6215 61.9315 25.7506 61.7248 25.9244 61.6014C26.2208 61.3935 26.6293 61.3508 27.1499 61.4742C27.9951 61.6738 28.3439 62.0755 28.1964 62.6794L27.744 64.5358C27.704 64.6998 27.7564 64.7986 27.9007 64.8329C27.9184 64.8367 27.9675 64.8348 28.0482 64.8264C28.0764 64.8238 28.0954 64.8219 28.1052 64.8193L28.1059 64.8206ZM27.4732 63.3434L26.5526 63.3583C26.2227 63.3622 25.99 63.3919 25.8542 63.4461C25.7179 63.5004 25.6326 63.6011 25.5966 63.7478C25.5133 64.0888 25.6956 64.3116 26.1421 64.4169C26.4575 64.4912 26.7493 64.4531 27.0174 64.3026C27.1879 64.2109 27.2928 64.0849 27.3315 63.9254L27.4732 63.3434Z" fill="#595F5C"/>
<path id="Vector_24" d="M31.8248 63.5165L31.2767 63.4403C31.278 62.9565 31.04 62.6814 30.5626 62.6155C30.2636 62.5742 30.0131 62.6581 29.8105 62.8667C29.6079 63.076 29.4768 63.3873 29.4178 63.8001C29.3594 64.2083 29.4151 64.5345 29.585 64.7773C29.7273 64.9898 29.941 65.1158 30.2262 65.1552C30.6852 65.2191 30.9947 65.0111 31.1547 64.5319L31.7094 64.6094C31.613 65.026 31.4137 65.3231 31.1114 65.5001C30.8478 65.6564 30.5246 65.7074 30.141 65.6538C29.6374 65.584 29.2702 65.3535 29.0394 64.9633C28.8421 64.6268 28.7785 64.2128 28.8493 63.7206C28.9339 63.1322 29.1581 62.693 29.522 62.403C29.8348 62.1556 30.2072 62.0613 30.64 62.122C31.139 62.1911 31.4904 62.4082 31.6924 62.7724C31.7973 62.9617 31.8412 63.2097 31.8242 63.5165H31.8248Z" fill="#595F5C"/>
<path id="Vector_25" d="M35.4265 64.4582L32.8706 64.3232C32.8588 64.6158 32.9093 64.8516 33.0214 65.0305C33.1991 65.3199 33.4705 65.4742 33.8351 65.4936C34.2849 65.5175 34.5997 65.3231 34.78 64.911L35.3327 64.9401C35.2409 65.2953 35.0593 65.5653 34.7878 65.7507C34.5164 65.9361 34.1826 66.0181 33.7872 65.9974C33.2614 65.9696 32.8686 65.7714 32.609 65.4019C32.3788 65.0789 32.2772 64.6623 32.3054 64.1534C32.3375 63.5643 32.5244 63.1148 32.866 62.8041C33.165 62.5354 33.5387 62.4133 33.9885 62.4372C34.3164 62.4547 34.6016 62.5477 34.8423 62.7156C35.0836 62.8842 35.2508 63.1057 35.3439 63.3815C35.4258 63.6166 35.454 63.9693 35.4285 64.4389L35.4271 64.4589L35.4265 64.4582ZM34.8573 63.9816C34.8737 63.6851 34.7977 63.4397 34.6305 63.2465C34.4626 63.0534 34.2397 62.9494 33.961 62.9346C33.6777 62.9197 33.4424 62.9972 33.2548 63.1671C33.0673 63.337 32.9539 63.574 32.9152 63.8789L34.8573 63.9816Z" fill="#595F5C"/>
<path id="Vector_26" d="M39.1768 65.7978L38.6313 65.834L38.5946 65.2966C38.3756 65.7203 38.0208 65.9483 37.531 65.9806C37.194 66.0032 36.9199 65.938 36.7088 65.7849C36.4976 65.6325 36.3822 65.4168 36.3632 65.1377L36.1875 62.569L36.733 62.5328L36.8943 64.8826C36.9081 65.0815 36.9842 65.2365 37.1225 65.3476C37.2609 65.4587 37.4405 65.5065 37.6602 65.4917C37.9474 65.4723 38.1697 65.3547 38.3264 65.1371C38.4831 64.9201 38.5493 64.6365 38.5257 64.2871L38.3978 62.4217L38.9434 62.3855L39.1768 65.7972V65.7978Z" fill="#595F5C"/>
<path id="Vector_27" d="M41.2013 62.082L41.2629 62.5167L40.5607 62.6129L40.8787 64.8665C40.8898 64.9453 40.9272 65.0085 40.9908 65.0557C41.0544 65.1029 41.1305 65.1203 41.2196 65.108C41.3042 65.0964 41.4308 65.0589 41.5993 64.9956L41.7265 65.462C41.457 65.5479 41.2505 65.6008 41.1082 65.6209C40.6669 65.6816 40.421 65.5337 40.3705 65.1778L40.0191 62.6872L39.5509 62.7511L39.4893 62.3164L39.9574 62.2525L39.8597 61.5607L40.3672 61.243L40.499 62.1789L41.2013 62.0826V62.082Z" fill="#595F5C"/>
<path id="Vector_28" d="M41.8177 60.6106C41.9108 60.5938 41.9954 60.6106 42.0714 60.6623C42.1475 60.714 42.194 60.7831 42.2104 60.8703C42.2275 60.962 42.2104 61.0453 42.158 61.1202C42.1055 61.1952 42.0334 61.241 41.9403 61.2585C41.8518 61.2746 41.7692 61.2572 41.6931 61.2055C41.617 61.1545 41.5705 61.0828 41.5528 60.9911C41.5364 60.9039 41.5541 60.8231 41.6065 60.7475C41.6583 60.6726 41.7292 60.6268 41.8177 60.6106ZM42.3252 61.8772L42.9612 65.2391L42.4235 65.338L41.7875 61.9767L42.3252 61.8779V61.8772Z" fill="#595F5C"/>
<path id="Vector_29" d="M46.0877 62.1711L45.5513 62.3068C45.3651 61.8591 45.0386 61.6944 44.5717 61.8126C44.2793 61.8869 44.0799 62.0581 43.9737 62.3281C43.8675 62.5981 43.8668 62.9346 43.9724 63.3383C44.0767 63.7381 44.2544 64.0177 44.5055 64.1786C44.7193 64.3213 44.9658 64.3575 45.2451 64.2871C45.6943 64.1734 45.8995 63.8647 45.8615 63.3615L46.4044 63.2239C46.4772 63.6451 46.4077 63.9945 46.1965 64.2722C46.0136 64.5157 45.7343 64.6843 45.3599 64.7793C44.8668 64.9039 44.4386 64.8296 44.074 64.5551C43.7613 64.3181 43.5423 63.9596 43.4164 63.4784C43.2662 62.9029 43.3036 62.4127 43.5279 62.0077C43.7213 61.6615 44.0288 61.4341 44.4524 61.3276C44.9409 61.2042 45.3487 61.2727 45.6772 61.533C45.847 61.6686 45.9841 61.8811 46.0877 62.1711Z" fill="#595F5C"/>
<path id="Vector_30" d="M50.3118 62.5968L50.4672 63.0082C50.3426 63.1109 50.2403 63.1768 50.1603 63.2059C49.8226 63.3299 49.582 63.2453 49.4377 62.9527C49.3236 63.3492 49.0135 63.6405 48.5073 63.8266C48.1572 63.9551 47.849 63.9596 47.5828 63.8395C47.3513 63.7355 47.1861 63.5521 47.0864 63.2905C46.973 62.9914 46.9933 62.7208 47.1474 62.4799C47.2352 62.3436 47.4562 62.1608 47.8116 61.9308L48.7853 61.3037L48.6902 61.033C48.5689 60.7133 48.264 60.6429 47.7742 60.8225C47.3061 60.9943 47.1257 61.2733 47.2333 61.6602L46.7081 61.8533C46.6136 61.5659 46.6038 61.3237 46.6779 61.1261C46.8058 60.7908 47.1205 60.5305 47.6228 60.3464C48.4371 60.0474 48.9545 60.1889 49.1741 60.7708L49.8508 62.56C49.9105 62.7182 50.0102 62.7712 50.1492 62.7201C50.1662 62.7143 50.2055 62.6853 50.2678 62.6342C50.2901 62.6168 50.3046 62.6045 50.3111 62.5968H50.3118ZM48.9492 61.7196L48.1939 62.2383C47.9224 62.423 47.746 62.5755 47.6641 62.6956C47.5821 62.8157 47.5677 62.9462 47.6215 63.0876C47.7454 63.4158 48.0227 63.501 48.4535 63.3434C48.7571 63.2317 48.9774 63.0399 49.1145 62.7673C49.2036 62.5974 49.2194 62.4353 49.161 62.2816L48.9486 61.7203L48.9492 61.7196Z" fill="#595F5C"/>
<path id="Vector_31" d="M49.6706 58.1116L51.7248 62.4237L51.2232 62.6555L49.1689 58.3435L49.6706 58.1116Z" fill="#595F5C"/>
<path id="Vector_32" d="M55.4841 58.6348L53.9229 59.6379L54.2862 61.1118L53.7374 61.4645L52.5381 56.5479L53.2056 56.119L57.2676 59.1961L56.6965 59.563L55.4848 58.6342L55.4841 58.6348ZM55.0527 58.3002L53.2312 56.8889L53.7688 59.125L55.0527 58.3002Z" fill="#595F5C"/>
<path id="Vector_33" d="M58.221 55.1218L57.76 55.5119C57.5207 55.2645 57.2315 55.2839 56.8932 55.57C56.7188 55.7173 56.6099 55.8665 56.5667 56.0176C56.5234 56.1688 56.5496 56.2992 56.6466 56.4103C56.7935 56.5789 57.061 56.5628 57.4499 56.3619L57.9338 56.11C58.2498 55.9479 58.5141 55.8736 58.7272 55.8859C58.9403 55.8988 59.1304 56.0008 59.2976 56.1927C59.512 56.4381 59.5842 56.7152 59.514 57.0227C59.4438 57.3307 59.2432 57.6246 58.9121 57.9049C58.5501 58.2111 58.202 58.3597 57.8676 58.3506C57.5902 58.3455 57.3469 58.2331 57.1371 58.0128L57.6138 57.6098C57.7436 57.7047 57.8564 57.7583 57.9508 57.7719C58.137 57.8016 58.356 57.7092 58.6091 57.4954C58.7967 57.3366 58.916 57.1757 58.9672 57.013C59.0183 56.8502 58.9934 56.7113 58.8937 56.597C58.7442 56.4252 58.5062 56.422 58.181 56.586L57.7076 56.8289C57.3456 57.0123 57.0624 57.106 56.8571 57.1098C56.6237 57.1144 56.4158 57.0123 56.2342 56.8037C56.029 56.5679 55.9575 56.3044 56.0198 56.0118C56.0821 55.7192 56.267 55.4428 56.5745 55.1831C56.8958 54.9112 57.2138 54.7794 57.5292 54.7872C57.8033 54.7949 58.0341 54.9067 58.2216 55.1218H58.221Z" fill="#595F5C"/>
<path id="Vector_34" d="M60.5444 52.7248L60.1306 53.1634C59.8644 52.9438 59.5798 52.9948 59.2762 53.3165C59.1202 53.4825 59.0284 53.6426 59.0028 53.797C58.9766 53.952 59.0179 54.0786 59.1267 54.1787C59.292 54.3299 59.5562 54.284 59.9195 54.0418L60.3719 53.7382C60.667 53.5425 60.9214 53.4392 61.1345 53.4282C61.3476 53.4172 61.5482 53.498 61.7358 53.6704C61.9764 53.8907 62.0793 54.1581 62.0452 54.4713C62.0105 54.7846 61.8446 55.0992 61.5476 55.4144C61.2223 55.7586 60.8938 55.9446 60.5601 55.9724C60.284 55.9982 60.029 55.913 59.7956 55.7173L60.2231 55.2639C60.3634 55.3433 60.4808 55.3846 60.5765 55.3879C60.7647 55.3969 60.9725 55.2813 61.1994 55.0404C61.3679 54.8615 61.4682 54.6884 61.5004 54.5211C61.5325 54.3538 61.4925 54.2188 61.3804 54.1161C61.2119 53.9624 60.9758 53.985 60.6709 54.1839L60.2277 54.4778C59.8887 54.7006 59.6179 54.8246 59.4146 54.8511C59.1831 54.8815 58.9654 54.8033 58.7609 54.616C58.5301 54.4048 58.4291 54.1503 58.4579 53.8526C58.4868 53.5548 58.6389 53.2603 58.915 52.9677C59.2028 52.6622 59.5044 52.4962 59.8185 52.469C60.0919 52.4464 60.3339 52.5323 60.545 52.7255L60.5444 52.7248Z" fill="#595F5C"/>
<path id="Vector_35" d="M61.0966 50.3679C61.4055 49.9533 61.7884 49.7427 62.2448 49.7375C62.6428 49.7279 63.0591 49.8809 63.4952 50.1955C63.9817 50.5469 64.2584 50.9396 64.3266 51.3736C64.3882 51.7482 64.2833 52.1177 64.0119 52.4826C63.6978 52.9044 63.3149 53.1227 62.8624 53.1376C62.4684 53.1498 62.0586 53.0019 61.6337 52.6951C61.1399 52.3386 60.8554 51.9375 60.7793 51.4918C60.7163 51.1114 60.8226 50.7367 61.0966 50.3679ZM61.5051 50.6631C61.3189 50.9137 61.2678 51.1792 61.3517 51.4595C61.4356 51.7405 61.6428 52.0001 61.9733 52.2385C62.3182 52.4878 62.6415 52.5976 62.9424 52.5679C63.206 52.544 63.4244 52.4154 63.5975 52.1829C63.7811 51.9362 63.8335 51.6785 63.7548 51.4098C63.6755 51.1411 63.4749 50.8898 63.1516 50.656C62.7962 50.3989 62.4651 50.2807 62.1589 50.3021C61.8907 50.3176 61.6724 50.4377 61.5051 50.6625V50.6631Z" fill="#595F5C"/>
<path id="Vector_36" d="M64.7792 46.8762L64.5032 47.349C64.0481 47.1682 63.7 47.2838 63.4606 47.6952C63.3105 47.9529 63.2961 48.2132 63.418 48.4767C63.54 48.7403 63.7839 48.9754 64.1511 49.1827C64.5143 49.3881 64.8422 49.4585 65.134 49.3933C65.3871 49.3422 65.5851 49.1937 65.7287 48.9476C65.9595 48.5517 65.8788 48.1913 65.4867 47.867L65.7661 47.3884C66.1228 47.6313 66.3286 47.9239 66.3831 48.2668C66.4322 48.5659 66.3601 48.8804 66.1673 49.2111C65.9136 49.6458 65.5608 49.8958 65.1071 49.9617C64.7163 50.0172 64.3025 49.921 63.8652 49.6736C63.342 49.3778 63.0115 49.009 62.8738 48.5685C62.7571 48.1906 62.8069 47.8147 63.0246 47.4414C63.2757 47.0106 63.6108 46.7703 64.0291 46.7205C64.2462 46.6954 64.4966 46.747 64.7792 46.8762Z" fill="#595F5C"/>
<path id="Vector_37" d="M62.9106 44.9359C62.9513 44.8519 63.0155 44.7951 63.1027 44.7647C63.1899 44.735 63.2739 44.7389 63.3552 44.777C63.4404 44.8171 63.4981 44.8804 63.5289 44.9663C63.5598 45.0522 63.5545 45.1368 63.5132 45.2207C63.4745 45.3008 63.4109 45.3557 63.3244 45.3861C63.2372 45.4165 63.1513 45.4113 63.066 45.3706C62.9847 45.3325 62.929 45.2698 62.8982 45.1846C62.8673 45.0987 62.8719 45.016 62.9106 44.9359ZM64.2482 45.2808L67.3779 46.7606L67.1412 47.2463L64.0115 45.7659L64.2482 45.2802V45.2808Z" fill="#595F5C"/>
<path id="Vector_38" d="M68.5664 42.7205L68.9821 42.8794C68.9769 43.0389 68.9591 43.1584 68.9277 43.2372C68.7972 43.5679 68.5729 43.6893 68.2556 43.6008C68.4805 43.949 68.4949 44.3708 68.2995 44.8668C68.1638 45.2098 67.9625 45.4397 67.6943 45.556C67.4615 45.6574 67.2124 45.6567 66.9481 45.556C66.6459 45.4404 66.4544 45.246 66.3744 44.9721C66.3292 44.8171 66.3377 44.5322 66.4 44.1182L66.5718 42.9847L66.3036 42.8749C65.9803 42.7508 65.7246 42.9291 65.5351 43.4084C65.3541 43.867 65.4459 44.1854 65.8105 44.363L65.6072 44.8778C65.3266 44.7564 65.1364 44.602 65.0355 44.416C64.8663 44.0988 64.8781 43.6945 65.0722 43.2023C65.3869 42.4046 65.838 42.1179 66.4255 42.3433L68.232 43.035C68.3913 43.0964 68.4982 43.0583 68.552 42.922C68.5585 42.9059 68.5631 42.8574 68.5657 42.7773C68.567 42.7495 68.5677 42.7302 68.5664 42.7205ZM66.9953 43.1397L66.8865 44.0401C66.8465 44.3624 66.8445 44.5936 66.8806 44.7338C66.9173 44.8739 67.0065 44.9714 67.1494 45.0257C67.4812 45.1529 67.7297 45.005 67.8963 44.5839C68.0136 44.2861 68.0149 43.9968 67.8989 43.7139C67.8294 43.535 67.7173 43.4161 67.5619 43.356L66.9953 43.139V43.1397Z" fill="#595F5C"/>
<path id="Vector_39" d="M66.2882 39.8243L66.7157 39.9489L66.5138 40.6187L68.7281 41.2659C68.8054 41.2885 68.8795 41.2814 68.9497 41.2439C69.0199 41.2065 69.0677 41.1451 69.0933 41.0605C69.1176 40.9798 69.1353 40.8506 69.1464 40.6736L69.6297 40.7524C69.5975 41.0301 69.5615 41.2368 69.5202 41.3725C69.3936 41.7936 69.1549 41.9525 68.8054 41.8504L66.3584 41.1348L66.224 41.5811L65.7965 41.4564L65.9309 41.0101L65.2509 40.8112L65.167 40.2247L66.0863 40.4934L66.2882 39.8236V39.8243Z" fill="#595F5C"/>
<path id="Vector_40" d="M65.1796 38.6675C65.2019 38.577 65.253 38.5079 65.3317 38.4608C65.4104 38.4136 65.4937 38.4007 65.5815 38.4214C65.6733 38.4433 65.7435 38.4937 65.7914 38.5712C65.8392 38.6487 65.8523 38.7333 65.8294 38.8238C65.8077 38.9097 65.7579 38.9768 65.6792 39.024C65.6005 39.0711 65.5146 39.0841 65.4229 39.0615C65.3356 39.0401 65.2674 38.9911 65.2196 38.9135C65.1717 38.836 65.1586 38.754 65.1796 38.6675ZM66.5611 38.7327L69.9334 39.5439L69.8035 40.0671L66.4313 39.2559L66.5611 38.7327Z" fill="#595F5C"/>
<path id="Vector_41" d="M66.9382 36.5276C67.0254 36.0206 67.272 35.6634 67.6772 35.4567C68.0286 35.2726 68.4706 35.2248 69.003 35.3139C69.5977 35.4134 70.0246 35.6421 70.2823 35.9999C70.5078 36.3073 70.5826 36.6845 70.5052 37.1302C70.416 37.6463 70.1734 38.0106 69.7761 38.2231C69.4292 38.4078 68.9958 38.4569 68.4765 38.3703C67.8726 38.2696 67.4359 38.0364 67.1651 37.6721C66.9356 37.3595 66.8602 36.9778 66.9376 36.5276H66.9382ZM67.4379 36.6109C67.3854 36.9171 67.4602 37.1774 67.6634 37.3912C67.866 37.6049 68.1696 37.7458 68.5735 37.8129C68.9951 37.8833 69.3341 37.8388 69.5899 37.6792C69.8148 37.5416 69.9511 37.3304 70.0003 37.0462C70.0521 36.7446 69.982 36.4908 69.7885 36.2854C69.5958 36.08 69.3014 35.9443 68.9066 35.8785C68.4719 35.8061 68.1224 35.8462 67.8582 35.9999C67.6254 36.1323 67.4851 36.3358 67.4379 36.6109Z" fill="#595F5C"/>
<path id="Vector_42" d="M67.3486 34.3218L67.3834 33.8174L67.9696 33.8568C67.5486 33.5532 67.3545 33.1618 67.3873 32.6838C67.4103 32.3518 67.5126 32.0948 67.6948 31.9107C67.8765 31.7273 68.1092 31.6452 68.3925 31.664L71.0002 31.839L70.9628 32.3764L68.5774 32.2162C68.3709 32.2026 68.2024 32.2543 68.0725 32.3725C67.9427 32.4907 67.8699 32.658 67.8548 32.8744C67.8352 33.1579 67.9256 33.3904 68.125 33.5726C68.3243 33.7547 68.5997 33.8581 68.9498 33.8813L70.85 34.0086L70.8127 34.5531L67.3493 34.3212L67.3486 34.3218Z" fill="#595F5C"/>
</g>
<g id="Group_7">
<path id="Vector_43" d="M9.0684 10.6451C9.12872 10.7129 9.3615 10.9952 9.42313 11.0811L8.42975 12.409L8.3491 12.3503C8.51565 12.0854 8.50712 12.0506 8.28157 11.8871L7.20557 11.1062C6.96362 10.9306 6.9269 10.9506 6.75904 11.136L6.67773 11.0772L7.30261 10.242C7.4967 9.98303 7.57079 9.87775 7.59309 9.84222C7.65997 9.88679 7.87766 10.027 8.03502 10.1251L7.98519 10.2207C7.87372 10.1774 7.78389 10.1587 7.70324 10.151C7.58587 10.1342 7.52489 10.1781 7.40687 10.3357L7.2259 10.5773C7.16098 10.6645 7.1636 10.6761 7.24557 10.7355L7.84553 11.1708L8.06519 10.8776C8.20944 10.6845 8.18059 10.6386 8.01798 10.4687L8.08355 10.3809L8.65662 10.7969L8.59105 10.8847C8.36549 10.7775 8.32091 10.7781 8.18059 10.9661L7.96355 11.2567L8.49532 11.643C8.68678 11.7819 8.74776 11.7496 8.85595 11.6107L9.03562 11.3704C9.15692 11.2083 9.15561 11.1618 9.12807 11.0501C9.10709 10.9512 9.03889 10.8149 8.98381 10.7148L9.06906 10.647L9.0684 10.6451Z" fill="#595F5C"/>
<path id="Vector_44" d="M9.34492 9.48633C9.14427 9.40883 8.98363 9.39785 8.85773 9.54963C8.78495 9.63683 8.79085 9.75761 8.89249 9.83964C9.00199 9.92813 9.11542 9.89713 9.30164 9.80735C9.5908 9.67171 9.76915 9.62004 9.94947 9.76536C10.1954 9.9643 10.1344 10.2879 9.96061 10.4965C9.84849 10.6315 9.70161 10.7187 9.62621 10.7484C9.54228 10.7013 9.37114 10.6024 9.27541 10.5417L9.3259 10.4539C9.53376 10.5417 9.7521 10.5611 9.90095 10.3822C9.98291 10.2834 9.98029 10.1529 9.87537 10.0683C9.76325 9.97786 9.64916 9.99337 9.46097 10.078C9.22296 10.1858 9.01117 10.2679 8.81643 10.1103C8.62168 9.95267 8.60595 9.66912 8.8138 9.41981C8.90691 9.30807 9.00789 9.2396 9.061 9.19374C9.13182 9.23831 9.3141 9.35328 9.3895 9.39332L9.34492 9.48633Z" fill="#595F5C"/>
<path id="Vector_45" d="M10.8386 9.4211C10.8229 9.4831 10.7967 9.53219 10.775 9.55609C10.6255 9.72273 10.4459 9.72854 10.2367 9.5464L9.49971 8.90502L9.34628 9.07619L9.30562 9.06068L9.28923 8.92375L9.39086 8.81007L9.17711 8.62406C9.17317 8.5233 9.17711 8.3812 9.17383 8.28044L9.21448 8.25072C9.31087 8.34244 9.45381 8.47227 9.58888 8.58918L9.84001 8.30886C9.88591 8.30886 9.93902 8.36893 9.93443 8.41931L9.69773 8.68348L10.3462 9.24735C10.5514 9.42562 10.659 9.37653 10.7147 9.31388C10.7659 9.25639 10.7934 9.18599 10.8091 9.13302L10.9009 9.17178L10.8386 9.42045V9.4211Z" fill="#595F5C"/>
<path id="Vector_46" d="M11.2885 9.00966C11.1999 9.10267 11.0694 9.1046 10.9704 9.01289C10.8754 8.92569 10.8649 8.79328 10.9527 8.70027C11.0413 8.60726 11.1796 8.60468 11.2747 8.69188C11.3743 8.78359 11.377 8.916 11.2885 9.00966Z" fill="#595F5C"/>
<path id="Vector_47" d="M12.2431 7.97945L12.1743 7.90711C12.4306 7.63906 12.4319 7.60999 12.2582 7.4285L11.3723 6.49969C11.2537 6.37503 11.2255 6.38989 11.1081 6.47967L10.9835 6.57203L10.9219 6.50744C11.0655 6.3253 11.1992 6.12442 11.2786 5.95068L12.4864 7.21664C12.6627 7.40137 12.689 7.39943 12.9781 7.16303L13.047 7.23537L12.2438 7.97945H12.2431Z" fill="#595F5C"/>
<path id="Vector_48" d="M13.4613 5.61546L13.3662 5.837C13.3328 5.91386 13.2935 5.96489 13.2449 6.00558C12.9597 6.24262 12.5886 6.18772 12.3584 5.91967C12.1466 5.67229 12.0962 5.2221 12.4463 4.93145C12.7866 4.64854 13.2305 4.78354 13.5288 5.13232C13.9314 5.60254 13.9242 6.20258 13.6823 6.63791C13.6115 6.7658 13.4895 6.90661 13.4187 6.97507L13.3315 6.91371C13.6462 6.52747 13.7052 6.06758 13.4613 5.6161V5.61546ZM12.4909 5.05352C12.2994 5.21306 12.3827 5.44752 12.542 5.63354C12.7348 5.85896 13.0213 5.94034 13.2351 5.76272C13.3236 5.68909 13.3754 5.59414 13.3957 5.51469C13.3544 5.44946 13.3039 5.38551 13.2613 5.33578C13.0626 5.1039 12.7335 4.85071 12.4909 5.05352Z" fill="#595F5C"/>
<path id="Vector_49" d="M14.4529 3.49044C14.607 4.22742 14.7656 4.95857 14.9283 5.70459L14.7361 5.88027L14.6935 5.86413C14.6312 5.19885 14.5112 4.43927 14.3821 3.82373L13.8024 4.25454C13.6241 4.38695 13.6293 4.41925 13.6883 4.6479L13.6005 4.71313C13.5061 4.53034 13.4156 4.38631 13.3408 4.25971L14.4083 3.46655L14.4522 3.4898L14.4529 3.49044Z" fill="#595F5C"/>
<path id="Vector_50" d="M16.4368 3.90253L16.5765 4.10728C16.6998 4.28813 16.7227 4.29588 16.9391 4.18027L16.9955 4.26294L16.3096 4.71766L16.2532 4.63498C16.4493 4.47738 16.4486 4.44832 16.3254 4.26811L16.189 4.06788L15.4467 4.55941L15.3857 4.47028C15.4002 3.90899 15.4172 3.29668 15.4382 2.74249L15.5798 2.64819L16.3417 3.76431L16.6158 3.58281L16.7102 3.72168L16.4362 3.90318L16.4368 3.90253ZM15.5425 3.12035C15.5385 3.47688 15.5326 3.88768 15.5326 4.30041L16.0939 3.92837L15.5425 3.12035Z" fill="#595F5C"/>
<path id="Vector_51" d="M48.7871 1.78075L48.8251 1.69484C49.1812 1.82144 49.2068 1.81369 49.3084 1.5831L49.8277 0.401104C49.8965 0.24415 49.8775 0.228649 49.7457 0.1576L49.5995 0.0768621L49.6336 0C49.8546 0.0542556 50.0828 0.0930096 50.2716 0.0930096L49.568 1.69355C49.4651 1.92737 49.4789 1.94803 49.8192 2.11855L49.7811 2.20446L48.7878 1.78075H48.7871Z" fill="#595F5C"/>
<path id="Vector_52" d="M51.4731 1.93189L51.2173 1.93447C51.1334 1.93447 51.0698 1.91833 51.0114 1.89055C50.6849 1.73102 50.5866 1.37642 50.7446 1.06057C50.8928 0.766041 51.2895 0.551602 51.6829 0.743435C52.0763 0.935267 52.1235 1.38546 51.9183 1.79367C51.6403 2.34656 51.0796 2.58554 50.5813 2.54097C50.4318 2.52806 50.2613 2.47445 50.1787 2.44215L50.1984 2.34333C50.6711 2.47638 51.138 2.3485 51.4724 1.93189H51.4731ZM51.5937 0.830631C51.3557 0.714369 51.1616 0.896513 51.056 1.10708C50.9229 1.37125 50.9623 1.66384 51.2186 1.7885C51.3281 1.84211 51.4488 1.8518 51.5373 1.83501C51.5799 1.77365 51.6193 1.7026 51.6475 1.64576C51.7819 1.37835 51.8901 0.974667 51.5944 0.829985L51.5937 0.830631Z" fill="#595F5C"/>
<path id="Vector_53" d="M53.8053 1.96418C53.1817 2.39952 52.5686 2.83744 51.9352 3.28311L51.7097 3.18493L51.707 3.14101C52.2978 2.81806 52.9699 2.3937 53.4892 2.0236L52.8545 1.67159C52.6617 1.56501 52.6348 1.58439 52.4447 1.73295L52.3529 1.68192C52.4762 1.53466 52.5712 1.39514 52.6578 1.27759L53.8092 1.91574L53.8053 1.96353V1.96418Z" fill="#595F5C"/>
<path id="Vector_54" d="M54.203 3.90446L54.0646 4.11955C53.944 4.30621 53.9466 4.32753 54.1381 4.47479L54.0869 4.55424L53.4142 4.13376L53.4653 4.05431C53.6935 4.16928 53.7191 4.16088 53.8391 3.97422L53.9754 3.76172L53.2168 3.28763L53.2712 3.20237C53.7905 2.99051 54.3525 2.76251 54.8934 2.54807L55.0226 2.62881L54.2895 3.76689L54.5715 3.94257L54.4843 4.07821L54.2023 3.90252L54.203 3.90446ZM54.6049 2.78576C54.2561 2.93303 53.8692 3.09644 53.483 3.26373L54.064 3.62673L54.6056 2.78576H54.6049Z" fill="#595F5C"/>
<path id="Vector_55" d="M57.8439 7.42526C57.7521 7.34969 57.6898 7.28381 57.6583 7.22633C57.6032 7.13009 57.6045 7.02481 57.6616 6.91048C57.1672 6.82458 56.737 6.63145 56.3712 6.33176C56.1233 6.12894 55.9384 5.92419 55.8164 5.71815C55.625 5.39649 55.6263 5.12005 55.8204 4.88946C55.8735 4.82681 55.9522 4.76609 56.0571 4.70861C56.162 4.65048 56.2472 4.61754 56.3141 4.60979C56.3423 4.63304 56.3456 4.65758 56.324 4.68277C56.322 4.68536 56.2872 4.71055 56.2197 4.75964C56.1522 4.80872 56.1135 4.83908 56.1036 4.85071C55.9463 5.03673 55.9646 5.27571 56.1574 5.56766C56.282 5.75626 56.4669 5.95068 56.7128 6.1522C56.8498 6.26458 57.0078 6.37245 57.1882 6.47644C57.3245 6.55653 57.4308 6.61014 57.5075 6.63727C57.6478 6.69346 57.7534 6.70057 57.8235 6.65987C57.8452 6.63404 57.8688 6.6321 57.895 6.65341C57.9022 6.65923 57.9035 6.67602 57.8996 6.70444C57.8491 6.81618 57.8439 6.91242 57.8839 6.99251C57.9081 7.03966 57.9645 7.09973 58.0543 7.17336L57.8425 7.42462L57.8439 7.42526ZM57.7993 5.47658C57.7475 5.48111 57.6471 5.50565 57.4983 5.54893C57.4806 5.45592 57.4531 5.35645 57.415 5.25052C57.3613 5.25762 57.2695 5.28088 57.1403 5.32028C57.1305 5.2137 57.1069 5.1039 57.0701 4.99151C57.1737 4.97795 57.2721 4.95793 57.3652 4.93274C57.3777 5.01735 57.4026 5.11294 57.4413 5.21887C57.5147 5.21241 57.6039 5.19691 57.7081 5.17237C57.7344 5.28798 57.7645 5.38939 57.7986 5.47658H57.7993Z" fill="#595F5C"/>
<path id="Vector_56" d="M59.5031 9.08846L59.4644 9.04971C59.3864 8.97285 59.3759 8.83979 59.433 8.65183C59.2481 8.6964 59.1104 8.6738 59.0192 8.58337C58.9346 8.50005 58.9307 8.36958 59.0068 8.19195C58.7917 8.23652 58.6225 8.19777 58.4986 8.07505C58.3793 7.95685 58.3353 7.80635 58.3662 7.62227C58.1426 7.6326 57.957 7.56479 57.8095 7.41881C57.7832 7.39298 57.7577 7.3652 57.7314 7.33549L57.9662 7.1049L58.1091 7.24636C58.1675 7.31676 58.2416 7.36779 58.3321 7.39943C58.4219 7.43044 58.5124 7.43108 58.6042 7.40137C58.6127 7.39685 58.6238 7.39491 58.637 7.39491C58.6481 7.38393 58.6599 7.38522 58.673 7.39814C58.6927 7.39168 58.6966 7.39814 58.6861 7.41752C58.6907 7.42204 58.6901 7.43044 58.6861 7.44336C58.6075 7.59708 58.6278 7.73272 58.7471 7.85092C58.8789 7.98139 59.0428 8.02983 59.2389 7.99625C59.2474 7.98785 59.2572 7.98656 59.2684 7.99302C59.2769 7.9885 59.2854 7.99108 59.2946 7.99948C59.2992 8.004 59.3012 8.01239 59.3012 8.02531L59.2553 8.11509C59.2179 8.21585 59.233 8.29917 59.3005 8.3657C59.3825 8.44708 59.4835 8.45677 59.6035 8.39541C59.6166 8.39089 59.6349 8.38572 59.6585 8.37926C59.6736 8.38572 59.6834 8.38895 59.688 8.38895C59.69 8.39089 59.6913 8.39864 59.6913 8.41156C59.6802 8.46065 59.6664 8.51103 59.6487 8.56205C59.6113 8.66281 59.6415 8.76099 59.7392 8.85723L59.5044 9.08782L59.5031 9.08846Z" fill="#595F5C"/>
<path id="Vector_57" d="M61.4714 10.3841C61.4039 10.441 61.3108 10.483 61.1934 10.5101C61.038 10.545 60.9219 10.5178 60.8439 10.4281C60.7783 10.3518 60.7324 10.2291 60.7069 10.0599C60.5049 10.1019 60.337 10.0444 60.2013 9.88809C60.0676 9.73372 60.021 9.55609 60.0617 9.35587C59.9292 9.35199 59.819 9.32486 59.7318 9.27513C59.6256 9.21764 59.5155 9.11301 59.4014 8.96251L59.6538 8.75066L59.821 8.94378C59.9961 9.14659 60.1784 9.21247 60.3672 9.14143C60.3882 9.12399 60.4085 9.12657 60.4288 9.14918C60.4367 9.15822 60.4361 9.18083 60.4269 9.21635C60.3134 9.35134 60.3187 9.49021 60.442 9.63296C60.5836 9.79637 60.7587 9.8616 60.9685 9.82866C61.0059 9.82091 61.0616 9.80993 61.1344 9.79637C61.1481 9.78474 61.1645 9.78926 61.1822 9.80993C61.1934 9.80864 61.1993 9.81575 61.1999 9.8306C61.2032 9.84352 61.1993 9.85514 61.1875 9.86483C61.0695 10.0315 61.0642 10.1768 61.1717 10.3015C61.1993 10.3338 61.2288 10.337 61.259 10.3118C61.2839 10.275 61.314 10.2001 61.3488 10.087L61.6806 10.0651C61.6465 10.1891 61.577 10.295 61.4721 10.3835L61.4714 10.3841Z" fill="#595F5C"/>
<path id="Vector_58" d="M61.5773 11.5778C61.4298 11.3879 61.3983 11.2102 61.4823 11.0442C61.5387 10.937 61.6914 10.7762 61.9419 10.5611C62.2744 10.2769 62.5425 10.0198 62.7465 9.78991L63.0251 9.84287L62.1249 10.6399C61.9111 10.8272 61.7891 10.9816 61.7596 11.103C61.7387 11.1909 61.7655 11.2832 61.8403 11.3788L61.5767 11.5771L61.5773 11.5778ZM63.5785 9.88356L63.3602 9.9165C63.2028 9.73824 63.0336 9.58516 62.854 9.45792L62.9786 9.40947C63.0297 9.43595 63.0854 9.47019 63.1451 9.51217C63.1589 9.36103 63.1904 9.26673 63.2395 9.22991C63.313 9.17501 63.4054 9.16016 63.5182 9.18599C63.6198 9.21247 63.6939 9.25575 63.7405 9.31582C63.7706 9.35393 63.787 9.40043 63.7903 9.45533C63.7936 9.50959 63.7844 9.54511 63.7628 9.5619C63.7215 9.59291 63.6552 9.60518 63.5641 9.59743C63.5812 9.47019 63.5516 9.36684 63.4749 9.28804C63.4579 9.28546 63.4454 9.2874 63.4382 9.29321C63.4067 9.31711 63.3851 9.38041 63.3746 9.48375C63.3635 9.5871 63.3772 9.66267 63.4146 9.71046L63.5785 9.88421V9.88356Z" fill="#595F5C"/>
<path id="Vector_59" d="M62.4276 11.8077C62.2853 11.9085 62.1188 11.9492 61.928 11.9317C61.768 11.7954 61.6349 11.6533 61.5273 11.5054L61.7968 11.3149C62.0381 11.6469 62.2001 11.7838 62.2827 11.7257C62.3201 11.6992 62.3758 11.5887 62.4506 11.395C62.5214 11.3937 62.6269 11.3911 62.7686 11.3879C62.7083 11.5493 62.5948 11.6895 62.4276 11.8071V11.8077ZM63.4446 11.3129C63.3554 11.3052 63.2525 11.3058 63.1338 11.3142C63.1502 11.2018 63.1508 11.1011 63.1351 11.012C63.0151 11.0074 62.9259 11.0074 62.8682 11.0107C62.8761 10.897 62.8761 10.7911 62.8682 10.6922C62.9561 10.7045 63.0538 10.7084 63.16 10.7039C63.1561 10.7659 63.1594 10.8608 63.1686 10.9881C63.2367 10.999 63.3253 11.0036 63.4335 11.0016C63.4289 11.083 63.4321 11.187 63.4439 11.3123L63.4446 11.3129Z" fill="#595F5C"/>
</g>
<g id="Group_8">
<path id="Vector_60" d="M17.8965 45.0179C17.6408 44.9327 17.4342 44.7331 17.2769 44.4198C17.2696 44.4056 17.2441 44.31 17.2008 44.1331L17.0913 43.978C16.9792 43.8198 16.5759 43.7487 15.8815 43.7642L15.8311 43.7358C15.9543 43.5931 16.1196 43.471 16.3274 43.3702C16.4507 43.3102 16.6979 43.3069 17.069 43.3593C17.4762 43.418 17.7201 43.5272 17.8001 43.6861C17.8296 43.7455 17.8506 43.8424 17.8631 43.9767C17.8749 44.1111 17.8958 44.208 17.926 44.2674C18.0073 44.4289 18.2263 44.5671 18.5843 44.6827L17.8972 45.0173L17.8965 45.0179ZM19.9423 42.5022C19.9108 42.5177 19.8662 42.5428 19.8078 42.579C19.7495 42.6145 19.7042 42.6404 19.6734 42.6559C19.5311 42.725 19.3771 42.7231 19.2118 42.6494C19.1731 42.6326 19.0374 42.5493 18.804 42.3995C18.741 42.371 18.6505 42.3194 18.5312 42.2451L18.5909 42.2025C18.6755 42.1611 18.8636 42.1036 19.1561 42.0294C19.2912 42.1262 19.5534 42.2838 19.9423 42.5022Z" fill="#595F5C"/>
<path id="Vector_61" d="M17.6807 46.0165C17.6512 46.0346 17.6086 46.063 17.5535 46.1011C17.4984 46.1392 17.4558 46.1676 17.4263 46.1857C17.3004 46.2626 17.1627 46.2794 17.0126 46.2374C17.0086 46.2367 16.8781 46.1773 16.6211 46.0604C16.5582 46.0307 16.4349 45.9732 16.252 45.8886L16.307 45.8408C16.3824 45.795 16.5647 45.7194 16.8532 45.6147C17.0788 45.7575 17.3548 45.8912 17.6807 46.0165ZM18.6603 46.1851C18.4282 46.1179 18.2479 45.9823 18.1187 45.7769C17.9981 45.5857 17.9784 45.37 18.0584 45.131L17.9194 45.0754L18.5534 44.6879C18.8485 44.7292 19.036 44.7331 19.116 44.6995L19.1691 44.7092C19.1193 44.7861 19.017 44.872 18.8616 44.9669C18.7082 45.0606 18.5534 45.1051 18.3961 45.1019C18.3987 45.1658 18.4321 45.2498 18.4971 45.3532C18.5534 45.4429 18.6715 45.5321 18.8498 45.6193C19.0701 45.7278 19.2229 45.7846 19.3075 45.7885L18.6597 46.1844L18.6603 46.1851Z" fill="#595F5C"/>
<path id="Vector_62" d="M19.453 47.2779C19.217 47.2256 19.0281 47.1016 18.8859 46.9059C18.7527 46.7225 18.7187 46.5093 18.7829 46.2652L18.6406 46.2193L19.2478 45.7917C19.5448 45.8137 19.7324 45.8059 19.8104 45.7672L19.8642 45.773C19.8196 45.8531 19.7232 45.9455 19.5743 46.0501C19.4275 46.1534 19.276 46.2083 19.1186 46.2148C19.1252 46.2787 19.1645 46.3601 19.2367 46.4589C19.2989 46.5448 19.4222 46.6262 19.6065 46.7018C19.8333 46.7961 19.9894 46.8426 20.0746 46.8413L19.4543 47.2779H19.453ZM21.5703 44.6601C21.5421 44.6801 21.5021 44.7118 21.4516 44.7557C21.4004 44.7996 21.3611 44.8313 21.3329 44.8513C21.2103 44.9372 21.0595 44.9592 20.8792 44.9165C20.8064 44.8894 20.6582 44.8313 20.4346 44.7409C20.3841 44.7215 20.2851 44.6834 20.1389 44.6265L20.1933 44.5787L20.3245 44.4864L20.7205 44.3152C20.9782 44.456 21.2614 44.571 21.5703 44.6595V44.6601Z" fill="#595F5C"/>
<path id="Vector_63" d="M19.2387 48.5245C19.0328 48.6996 18.9535 48.7693 18.9994 48.7325C18.842 48.8565 18.5895 48.8514 18.2433 48.717C18.2086 48.6867 18.1397 48.6595 18.0374 48.635C17.9089 48.604 17.8322 48.5814 17.8066 48.5672C17.8322 48.5303 17.8499 48.5077 17.8604 48.4993C17.9234 48.4496 18.0925 48.3572 18.3686 48.2216C18.5863 48.325 18.8761 48.4257 19.238 48.5245H19.2387ZM20.453 46.9653C20.1186 47.2282 19.7763 47.3361 19.4256 47.2902L20.0183 46.8239C20.1671 46.8458 20.3147 46.8226 20.4622 46.7541C20.6858 46.4867 20.794 46.2426 20.7868 46.021C20.7061 46.0236 20.6268 46.0423 20.5481 46.0766C20.5396 46.0701 20.5317 46.0624 20.5252 46.054C20.5101 46.0352 20.5383 45.9978 20.6097 45.9416C20.9815 45.649 21.2504 45.5198 21.4149 45.5527C21.3402 45.9067 21.2313 46.1799 21.0891 46.3737C20.9828 46.5184 20.7704 46.7154 20.453 46.9653Z" fill="#595F5C"/>
<path id="Vector_64" d="M22.5149 50.521C22.4658 50.521 22.2966 50.4829 22.0074 50.408C21.8081 50.3569 21.6625 50.3111 21.5714 50.2691C21.0895 50.7419 20.5518 51.0119 19.9584 51.0778C19.5932 51.1185 19.3401 51.1081 19.1997 51.0481C18.8765 50.9085 18.5395 50.6657 18.1887 50.3182C17.9152 50.0482 17.6772 49.6942 17.4746 49.2576L17.4772 49.2098H17.5113C17.5605 49.2621 17.6339 49.3552 17.7303 49.4882C17.8195 49.6142 17.8936 49.7059 17.952 49.764C18.485 50.2917 19.1322 50.5669 19.8928 50.5908C20.062 50.5966 20.2738 50.5772 20.5288 50.5333C20.801 50.4868 21.0036 50.4319 21.1367 50.3686C21.1845 50.344 21.2226 50.3163 21.2508 50.2846L21.3537 50.167C21.1865 50.0954 21.0567 50.014 20.9636 49.9216C20.7551 49.7149 20.7459 49.5186 20.936 49.3313C21.0829 49.1872 21.2291 49.0755 21.376 48.9947C21.593 48.8752 21.7517 48.8656 21.8527 48.965C21.9458 49.0567 22.0028 49.1866 22.0245 49.3545C22.0461 49.5224 22.0232 49.6613 21.9563 49.7718C22.4867 49.9248 22.8533 49.9965 23.0572 49.9875L22.5143 50.5204L22.5149 50.521Z" fill="#595F5C"/>
<path id="Vector_65" d="M24.5584 51.9174C24.3145 51.9568 24.0188 51.8535 23.6719 51.6074C23.4883 51.4776 23.428 51.236 23.4909 50.8821C23.5139 50.7548 23.5912 50.5042 23.7217 50.1302C23.6653 50.1851 23.5762 50.262 23.4535 50.3615C23.405 50.428 23.2837 50.4939 23.0903 50.5591C22.9972 50.5914 22.8536 50.6153 22.6602 50.6315L23.1028 50.025C23.5231 49.9442 23.7971 49.8157 23.9263 49.6394C24.0017 49.536 24.0961 49.3093 24.2096 48.9586C24.2502 48.8307 24.323 48.6014 24.4279 48.2713L24.5479 48.1066C24.6908 47.9109 24.7833 47.8179 24.8253 47.8282L24.8489 47.8644C24.6856 48.4244 24.4961 48.9734 24.281 49.5134C24.1912 49.7408 24.0988 49.9881 24.0024 50.2555C23.864 50.6405 23.9243 50.9247 24.1846 51.1088C24.464 51.3064 24.7374 51.3729 25.0036 51.3071L24.5584 51.9168V51.9174ZM28.0519 46.0223C27.3779 46.5694 26.8356 47.1236 26.4258 47.6849C26.3819 47.7449 26.3425 47.8166 26.3084 47.8999L26.2311 47.9038C26.2416 47.8166 26.2927 47.6558 26.3852 47.4207C25.9098 47.681 25.3334 47.7998 24.6548 47.7759C24.5387 47.7721 24.4364 47.765 24.3479 47.754C24.3237 47.7462 24.2876 47.7346 24.2404 47.7172L24.2096 47.6706L24.2325 47.6526C24.9761 47.6965 25.6534 47.5576 26.2652 47.2373C26.6369 47.0409 27.2081 46.6211 27.9785 45.979H28.0277L28.0519 46.021V46.0223Z" fill="#595F5C"/>
<path id="Vector_66" d="M26.3456 50.6508C25.8787 51.4227 25.288 51.8561 24.5732 51.951L24.9614 51.309C25.5856 51.1514 26 50.904 26.204 50.5669C26.3456 50.3324 26.4282 50.0017 26.4518 49.5748C26.4616 49.3984 26.4564 49.058 26.4361 48.5523C26.2892 48.8423 26.0656 49.2783 25.7666 49.8615L25.7201 49.8758L25.6938 49.8415C25.6892 49.7459 25.8269 49.4172 26.1076 48.8539C26.343 48.3818 26.5193 48.0485 26.6367 47.8554C26.678 47.7869 26.7206 47.7423 26.7646 47.7223C26.9528 48.0272 26.9842 48.5161 26.859 49.1885C26.7482 49.7802 26.5777 50.2678 26.3462 50.6495L26.3456 50.6508Z" fill="#595F5C"/>
<path id="Vector_67" d="M27.8229 51.3019C27.5088 51.9052 27.1816 52.4174 26.842 52.8385C26.3325 53.4682 25.8604 53.8048 25.4244 53.8461C25.1004 53.8758 24.7733 53.8519 24.4421 53.7744C23.9071 53.6472 23.496 53.5109 23.2088 53.3655C23.2075 53.35 23.2081 53.3352 23.2088 53.321L23.2271 53.2945L23.2488 53.2874C23.3274 53.3274 23.5956 53.3643 24.052 53.3985C24.6519 53.4424 25.1306 53.4043 25.4893 53.2848C26.3941 52.9799 27.0262 52.4832 27.3842 51.7947C27.6518 51.2806 27.7796 50.344 27.7685 48.9831C27.6754 49.1562 27.5593 49.4029 27.4196 49.7227C27.2656 50.0766 27.1515 50.3253 27.0767 50.4693C26.9515 50.7096 26.8564 50.8239 26.7915 50.8117L26.7784 50.738C26.8302 50.6392 26.8616 50.5778 26.8741 50.5539C26.981 50.3492 27.1187 50.0321 27.2872 49.6038C27.4557 49.1756 27.5934 48.8585 27.7003 48.6537C27.8242 48.4154 27.9757 48.2287 28.1553 48.0931C28.1816 48.1183 28.1907 48.376 28.1835 48.8662C28.1763 49.3035 28.1652 49.6187 28.1488 49.8131C28.1324 50.0075 28.1035 50.2278 28.0629 50.4751C28.0039 50.8323 27.9239 51.1075 27.8235 51.3012L27.8229 51.3019Z" fill="#595F5C"/>
<path id="Vector_68" d="M29.7827 54.2427C29.5381 54.3551 29.2489 54.3512 28.9152 54.2311C28.9001 54.2259 28.8149 54.1736 28.6595 54.0754L28.4719 54.0373C28.2798 53.9992 27.9382 54.222 27.4471 54.7052L27.3907 54.7187C27.3796 54.5314 27.4143 54.3312 27.493 54.1167C27.5402 53.9895 27.7159 53.819 28.0221 53.6045C28.3579 53.3701 28.611 53.2829 28.7801 53.3436C28.8431 53.3662 28.9263 53.4224 29.0293 53.5115C29.1322 53.6007 29.2155 53.6569 29.2785 53.6795C29.4502 53.7415 29.706 53.6924 30.0456 53.5322L29.7827 54.2414V54.2427ZM29.4988 51.0319C29.487 51.0642 29.4725 51.1133 29.4548 51.1792C29.4378 51.2451 29.4234 51.2942 29.4109 51.3265C29.3565 51.4731 29.2437 51.5764 29.0726 51.6358C29.0332 51.65 28.8765 51.6817 28.6024 51.7327C28.5369 51.7547 28.4352 51.7792 28.2969 51.8064L28.3106 51.7353C28.3428 51.6481 28.4385 51.4782 28.5985 51.225C28.7644 51.2031 29.064 51.1385 29.4988 51.0326V51.0319Z" fill="#595F5C"/>
<path id="Vector_69" d="M30.3169 55.1114C30.3077 55.145 30.2972 55.1941 30.2841 55.2593C30.271 55.3246 30.2599 55.3736 30.2507 55.4066C30.2133 55.5474 30.1248 55.6533 29.9864 55.7244C29.9832 55.7263 29.8474 55.7722 29.5786 55.8613C29.5117 55.8826 29.3825 55.924 29.1904 55.9866L29.197 55.9143C29.2193 55.8296 29.2993 55.652 29.4357 55.3801C29.6992 55.3304 29.993 55.2406 30.3169 55.1108V55.1114ZM31.1457 54.5695C30.9306 54.678 30.7044 54.7019 30.4677 54.6405C30.2468 54.5831 30.0815 54.441 29.9727 54.2123L29.833 54.2666L30.0225 53.5554C30.2651 53.3856 30.4041 53.2609 30.4389 53.1828L30.4841 53.1537C30.5018 53.2435 30.4874 53.3752 30.4408 53.549C30.3949 53.7208 30.3136 53.8584 30.1969 53.9624C30.2435 54.0069 30.3261 54.045 30.4461 54.076C30.5503 54.1032 30.6972 54.0877 30.888 54.0302C31.1234 53.9598 31.2736 53.8971 31.3385 53.8429L31.1444 54.5695H31.1457Z" fill="#595F5C"/>
<path id="Vector_70" d="M32.3542 52.8088C32.1667 53.6878 31.7497 54.286 31.1045 54.6044L31.2605 53.8732C31.7995 53.5244 32.1097 53.1589 32.1916 52.7752C32.2487 52.5084 32.2179 52.1687 32.0998 51.7573C32.0507 51.5874 31.9339 51.267 31.749 50.7949C31.7051 51.1159 31.6376 51.6003 31.5458 52.2468L31.5064 52.2753L31.4704 52.2514C31.4343 52.1629 31.4566 51.807 31.5373 51.185C31.6048 50.6631 31.6625 50.2917 31.709 50.0715C31.7254 49.9939 31.751 49.9384 31.7858 49.9048C32.0638 50.1328 32.2546 50.5856 32.3575 51.2619C32.4474 51.8574 32.446 52.3728 32.3529 52.8081L32.3542 52.8088Z" fill="#595F5C"/>
<path id="Vector_71" d="M35.7461 55.2374C35.6871 55.2787 35.531 55.3472 35.2786 55.4434C35.074 55.5209 34.9213 55.5539 34.8203 55.5422C34.6196 55.519 34.4688 55.3904 34.3665 55.1573C34.2833 54.9687 34.2485 54.7646 34.261 54.545L34.2288 54.5411L34.1895 54.5643C34.1272 54.6289 34.0223 54.8408 33.8741 55.1999C33.6643 55.7089 33.4499 56.0641 33.2309 56.2656C32.9358 56.5382 32.5476 56.6467 32.067 56.5905C31.6821 56.546 31.3366 56.4697 31.0304 56.3619L31.0186 56.3244C31.0304 56.318 31.0402 56.3109 31.0494 56.3038L31.0704 56.2979C31.4179 56.338 31.692 56.3406 31.8939 56.3057C32.1234 56.2656 32.3837 56.161 32.6748 55.9924C33.0702 55.7638 33.3318 55.5235 33.4597 55.2716C33.5325 55.1146 33.6676 54.8356 33.8643 54.4345C34.082 53.9959 34.2597 53.7641 34.398 53.7402L34.4426 53.7776C34.4478 53.7996 34.4439 53.9352 34.4308 54.1846C34.4216 54.3486 34.4557 54.4985 34.5318 54.6322C34.6164 54.7859 34.7357 54.8718 34.8911 54.8899C35.1796 54.9235 35.495 54.7891 35.8373 54.4875L35.7474 55.2374H35.7461Z" fill="#595F5C"/>
<path id="Vector_72" d="M37.5909 51.3633C37.4821 51.382 37.2355 51.4769 36.8506 51.6475C36.49 51.8057 36.2834 51.8839 36.2297 51.8813C36.1385 51.8767 36.0317 51.7928 35.9104 51.6281C35.8926 51.6035 35.8068 51.4815 35.6533 51.2619L35.8913 51.2728C35.953 51.2754 36.0336 51.3219 36.1333 51.4111C36.233 51.5008 36.2907 51.5454 36.3064 51.546C36.4356 51.5519 36.5024 51.5041 36.507 51.4014C36.5156 51.2276 36.4356 51.0862 36.269 50.9757L36.5149 50.9873C36.5792 50.9906 36.6546 51.0494 36.7405 51.165C36.8264 51.2806 36.8762 51.3381 36.89 51.3387C37.0106 51.3445 37.0742 51.2838 37.0801 51.1566C37.0867 51.019 37.0218 50.9098 36.886 50.8291C37.0263 50.8252 37.1031 50.8233 37.1162 50.8239C37.2211 50.8291 37.309 50.9008 37.3804 51.039C37.4742 51.2186 37.5443 51.3264 37.5909 51.3633Z" fill="#595F5C"/>
<path id="Vector_73" d="M36.6655 55.933C36.6675 55.9672 36.6714 56.0176 36.6786 56.0835C36.6858 56.1494 36.6904 56.1998 36.6917 56.234C36.6989 56.3793 36.6471 56.5066 36.5363 56.6151C36.5337 56.6176 36.4176 56.7016 36.1888 56.8657C36.1317 56.9057 36.0209 56.9832 35.857 57.1001L35.8413 57.0291C35.8373 56.9419 35.859 56.7488 35.9062 56.4491C36.1422 56.3244 36.3953 56.152 36.6648 55.9323L36.6655 55.933ZM37.291 55.1721C37.1186 55.3394 36.9101 55.4285 36.6655 55.4395C36.4373 55.4499 36.2367 55.3627 36.0636 55.1773L35.9468 55.2703L35.9114 54.5359C36.0911 54.3021 36.1862 54.1426 36.1954 54.0573L36.2294 54.016C36.2734 54.0961 36.3003 54.2259 36.3088 54.4061C36.3173 54.5837 36.2819 54.7387 36.2019 54.8724C36.2596 54.9015 36.3508 54.9131 36.474 54.9073C36.5816 54.9021 36.7173 54.844 36.8819 54.7329C37.0851 54.596 37.2097 54.4926 37.255 54.4209L37.291 55.1715V55.1721Z" fill="#595F5C"/>
<path id="Vector_74" d="M41.3203 54.802C41.1249 55.0081 40.8246 55.134 40.4181 55.1799C39.9801 55.2296 39.5795 55.012 39.2175 54.5282C39.049 54.6619 38.8969 54.7484 38.7605 54.7878L38.8877 55.2174L38.8851 55.2658L38.8451 55.2703C38.7736 55.1211 38.7179 54.9713 38.6792 54.8208C38.3763 54.9403 38.0314 55.0223 37.6438 55.0662L37.5291 55.0591C37.518 55.0791 37.4485 55.156 37.3206 55.291L37.2354 54.5605C37.3003 54.4436 37.394 54.264 37.5173 54.0205C37.5671 54.0974 37.6019 54.2259 37.6229 54.4048C37.6366 54.523 37.6242 54.6483 37.5855 54.7807C37.8688 54.7484 38.1946 54.6076 38.5638 54.3583C38.5349 54.1083 38.5048 53.8093 38.4753 53.4605C38.4563 53.2519 38.5022 53.0736 38.6117 52.9251C38.71 52.7914 38.9244 52.6228 39.2555 52.42C39.5231 52.2565 39.7401 52.1648 39.906 52.1461C40.0371 52.1312 40.1152 52.2333 40.1407 52.4516C40.182 52.8069 40.1394 53.1537 40.0122 53.4922C39.885 53.8306 39.6877 54.1174 39.4201 54.3531C39.6837 54.5017 39.9185 54.565 40.1243 54.5417C40.6587 54.481 41.0279 54.317 41.2325 54.0483L41.3203 54.802ZM39.9657 52.8676C39.9611 52.8282 39.9257 52.812 39.8588 52.8198C39.7552 52.8314 39.5545 52.9192 39.2582 53.0839C39.0195 53.2151 38.8608 53.3236 38.7821 53.4101C38.6477 53.5535 38.594 53.7311 38.6215 53.9443L38.6615 54.2879C39.3841 53.7531 39.8188 53.2797 39.9657 52.8682V52.8676Z" fill="#595F5C"/>
<path id="Vector_75" d="M41.7753 52.6182C41.9733 53.4947 41.8454 54.2097 41.3917 54.762L41.2271 54.0328C41.5713 53.496 41.7005 53.0361 41.614 52.6538C41.5536 52.3877 41.3838 52.0912 41.1032 51.7644C40.9871 51.6294 40.7465 51.3852 40.3799 51.0313C40.475 51.3413 40.6166 51.8096 40.8048 52.4361L40.7812 52.4781L40.7386 52.471C40.6684 52.4051 40.5399 52.0725 40.3524 51.4731C40.195 50.9699 40.0914 50.6089 40.0416 50.3892C40.0239 50.3117 40.0239 50.2504 40.0416 50.2058C40.3911 50.3001 40.7543 50.6347 41.132 51.2089C41.4638 51.714 41.6789 52.1842 41.7766 52.6189L41.7753 52.6182Z" fill="#595F5C"/>
<path id="Vector_76" d="M43.3075 52.106C43.493 52.759 43.6065 53.3539 43.6471 53.89C43.7081 54.6929 43.5927 55.2561 43.3016 55.5784C43.0845 55.8174 42.8275 56.0189 42.5311 56.183C42.0505 56.4478 41.6551 56.6228 41.3443 56.7087C41.3332 56.6977 41.3227 56.6874 41.3142 56.6758L41.3096 56.6441L41.3207 56.6248C41.406 56.6015 41.6282 56.4491 41.9869 56.1688C42.457 55.7999 42.7829 55.4512 42.9632 55.1237C43.417 54.2944 43.5383 53.507 43.3265 52.7623C43.1685 52.2062 42.6164 51.433 41.6695 50.4422C41.7207 50.6315 41.8053 50.8905 41.924 51.2179C42.0551 51.5809 42.143 51.8399 42.1869 51.9956C42.261 52.2559 42.2695 52.4032 42.2138 52.438L42.1535 52.3928C42.1233 52.2856 42.1043 52.2197 42.0971 52.1939C42.0341 51.9717 41.9167 51.6475 41.745 51.2199C41.5732 50.7923 41.4558 50.468 41.3928 50.2459C41.3194 49.9881 41.3017 49.7498 41.3404 49.5302C41.3771 49.5308 41.5614 49.7143 41.8944 50.0792C42.1908 50.4047 42.4 50.6444 42.522 50.7975C42.6439 50.9512 42.775 51.132 42.9154 51.3413C43.1186 51.6429 43.2498 51.8981 43.3094 52.1073L43.3075 52.106Z" fill="#595F5C"/>
<path id="Vector_77" d="M44.3586 50.7942C44.3717 50.8259 44.3947 50.8717 44.4268 50.9318C44.4589 50.9919 44.4819 51.0377 44.495 51.0694C44.5553 51.2141 44.5428 51.3652 44.4576 51.5228C44.4379 51.5596 44.3442 51.6875 44.177 51.9065C44.1442 51.9659 44.0858 52.0518 44.0019 52.1642L43.9632 52.1028C43.9271 52.0169 43.8813 51.8283 43.8262 51.5351C43.9331 51.4085 44.1107 51.1617 44.3586 50.7949V50.7942ZM46.7683 52.9748C46.6647 53.2202 46.4483 53.4095 46.1204 53.5432C46.1054 53.549 46.007 53.5677 45.8254 53.5987L45.6608 53.6956C45.4929 53.7951 45.3933 54.1865 45.3625 54.8699L45.3297 54.9176C45.1933 54.7865 45.0812 54.616 44.9933 54.4054C44.9409 54.2808 44.954 54.0373 45.0326 53.6762C45.1199 53.2796 45.2471 53.0478 45.4136 52.9799C45.4759 52.9548 45.5756 52.9405 45.7126 52.938C45.8496 52.9354 45.9493 52.9212 46.0116 52.896C46.1808 52.8275 46.3355 52.6208 46.4771 52.2772L46.7696 52.9754L46.7683 52.9748Z" fill="#595F5C"/>
<path id="Vector_78" d="M48.0076 52.2921C47.9249 52.5162 47.7754 52.6848 47.5604 52.7991C47.3591 52.9057 47.1394 52.9115 46.9021 52.8172L46.8371 52.9509L46.4844 52.303C46.5447 52.0156 46.5604 51.8315 46.5316 51.7508L46.5447 51.6991C46.6194 51.7527 46.7001 51.8587 46.7866 52.0176C46.8719 52.1739 46.9073 52.3295 46.8935 52.4839C46.9584 52.4858 47.0457 52.4574 47.1545 52.3999C47.2496 52.3502 47.3466 52.2397 47.4463 52.0699C47.5702 51.86 47.6371 51.714 47.6463 51.6307L48.0062 52.2927L48.0076 52.2921ZM47.7754 53.2448C47.7918 53.2751 47.8181 53.3184 47.8535 53.3752C47.8889 53.4321 47.9144 53.4754 47.9315 53.5057C48.0017 53.6342 48.0102 53.7705 47.9577 53.9159C47.9564 53.9197 47.8889 54.0444 47.7538 54.2898C47.7197 54.3499 47.6535 54.4675 47.5564 54.6418L47.5112 54.5844C47.4692 54.5075 47.4043 54.3234 47.3165 54.0334C47.4751 53.8203 47.6279 53.558 47.7754 53.2454V53.2448Z" fill="#595F5C"/>
<path id="Vector_79" d="M49.7724 51.1695C49.6858 51.4027 49.5429 51.5835 49.3429 51.7127C49.0439 51.9058 48.6616 51.8606 48.1974 51.5777C48.1738 51.7166 48.1358 51.9614 48.0827 52.3121L47.6761 51.7004C47.6906 51.6597 47.7017 51.5964 47.7102 51.5125C47.6263 51.497 47.5483 51.5125 47.4762 51.559L47.2788 51.7192L47.208 51.6274L47.0952 51.4576C47.1142 51.4866 47.0808 51.4143 46.9949 51.2418C46.9457 51.1437 46.926 51.0713 46.9345 51.0242C46.9431 50.977 46.9883 50.9182 47.0696 50.8465C47.2198 50.7148 47.3627 50.6056 47.4978 50.5184C47.806 50.3195 48.0223 50.313 48.1456 50.4997C48.2472 50.6528 48.2886 50.8556 48.2702 51.1081C48.4315 51.2005 48.562 51.2476 48.663 51.2489C48.777 51.2515 48.9082 51.2044 49.057 51.1088C49.2013 51.0158 49.2977 50.8226 49.3462 50.5281L49.7724 51.1695Z" fill="#595F5C"/>
<path id="Vector_80" d="M48.3837 46.1244C48.3293 46.2025 48.1791 46.4751 47.9339 46.9427C47.7241 47.3425 47.5713 47.5796 47.4756 47.6519L47.1562 47.8948C47.6513 46.9608 47.9529 46.4525 48.0611 46.3698L48.3837 46.125V46.1244ZM49.0886 46.8038C49.0197 46.8898 48.8938 47.119 48.7102 47.4924C48.5398 47.8425 48.4329 48.0343 48.3903 48.0666C48.3181 48.1215 48.1811 48.1247 47.9805 48.0769C47.951 48.0692 47.8054 48.0311 47.5438 47.9619L47.7326 47.8186C47.7818 47.7811 47.8736 47.7649 48.008 47.7701C48.1424 47.7753 48.2159 47.7727 48.229 47.763C48.3313 47.6855 48.3509 47.6061 48.2867 47.5247C48.1791 47.3871 48.025 47.3296 47.8257 47.3516L48.0205 47.2037C48.0716 47.1649 48.168 47.1623 48.309 47.1953C48.4506 47.2282 48.5267 47.2411 48.5371 47.2327C48.6329 47.1597 48.6414 47.0732 48.5627 46.9724C48.4775 46.8633 48.3562 46.8213 48.1995 46.8465C48.3037 46.7541 48.3608 46.7037 48.3719 46.6953C48.4552 46.632 48.5693 46.6307 48.7148 46.6908C48.9017 46.7696 49.0263 46.8071 49.0886 46.8038Z" fill="#595F5C"/>
<path id="Vector_81" d="M51.4607 49.8202C51.4358 49.9197 51.3696 50.0127 51.2614 50.1005C51.1033 50.2284 50.9152 50.2736 50.6948 50.2362C50.7486 50.5462 50.7545 50.718 50.7132 50.7516C50.6614 50.7936 50.5316 50.8097 50.3244 50.7994C50.1362 50.791 49.9992 50.7716 49.9146 50.7406C49.929 50.791 49.9133 50.9324 49.8674 51.165L49.3848 50.5888C49.3933 50.4784 49.3985 50.2891 49.3998 50.0198C49.3802 49.9843 49.3854 49.9462 49.4136 49.9055C49.4746 49.8699 49.6746 49.8447 50.0142 49.8299C50.327 49.8163 50.5578 49.7485 50.7073 49.6271C50.8588 49.5044 50.9466 49.3739 50.9715 49.237L51.4594 49.8196L51.4607 49.8202Z" fill="#595F5C"/>
<path id="Vector_82" d="M53.977 47.1475C53.9292 47.5105 53.7875 47.8211 53.5528 48.0795C53.3017 48.3559 52.9673 48.4683 52.5489 48.416C52.1732 48.3689 51.8388 48.2164 51.5457 47.9587C51.5497 48.2681 51.5837 48.6938 51.6467 49.2363C51.6992 49.2931 51.8441 49.3952 52.0808 49.5418C52.3175 49.6884 52.4788 49.7763 52.564 49.8053L52.6073 49.8648L52.5686 49.8893C52.2558 49.7492 51.9542 49.5883 51.6644 49.4068C51.6572 49.4863 51.6533 49.6 51.6519 49.7479L51.0867 49.2499L51.0782 49.0503C50.9104 48.9134 50.7838 48.8068 50.6972 48.7306C50.4107 48.478 50.2199 48.2604 50.1261 48.0782C49.9766 47.7901 50.0094 47.5273 50.2245 47.2902C50.3124 47.1933 50.4678 47.0745 50.69 46.9324C50.9123 46.7909 51.0677 46.6714 51.1556 46.5746C51.3116 46.4027 51.4074 46.24 51.4421 46.0863L51.5188 46.1328C51.7214 46.311 51.8382 46.457 51.869 46.5694C51.6716 46.9143 51.5647 47.3057 51.5497 47.7436C51.7955 47.9213 52.046 48.0033 52.3004 47.9897C52.5548 47.9762 52.7824 47.858 52.983 47.6371C53.2663 47.3251 53.4066 46.9937 53.404 46.643L53.9751 47.1462L53.977 47.1475ZM51.0953 47.4233C50.9405 47.5221 50.8061 47.6345 50.6913 47.7604C50.4245 48.055 50.4579 48.3495 50.7923 48.644C50.8205 48.6686 50.85 48.6931 50.8822 48.7177L51.0671 48.8598L51.0264 48.1415C51.012 47.8909 51.0349 47.6513 51.0946 47.4233H51.0953ZM53.7652 49.6213L53.9174 49.8829C53.9698 49.972 54.0039 50.0637 54.0183 50.1587L53.5462 50.3027C53.4472 50.1302 53.3528 49.9513 53.2643 49.7666C53.459 49.6432 53.6262 49.5948 53.7646 49.6213H53.7652Z" fill="#595F5C"/>
<path id="Vector_83" d="M52.8362 45.202C53.5824 45.7181 53.9765 46.3311 54.0198 47.0409L53.3995 46.6114C53.2867 45.9861 53.067 45.5611 52.7418 45.3357C52.5149 45.1788 52.1864 45.0728 51.7556 45.0179C51.578 44.9953 51.2324 44.9747 50.7196 44.9566C51.0023 45.1226 51.4271 45.3751 51.995 45.7129L52.0061 45.7594L51.9701 45.7827C51.873 45.7801 51.5504 45.6199 51.0016 45.3021C50.5413 45.0354 50.2174 44.8371 50.0305 44.7079C49.9643 44.662 49.923 44.6168 49.9053 44.5729C50.2279 44.4108 50.7249 44.4166 51.397 44.5897C51.9878 44.7428 52.4684 44.9475 52.8375 45.2033L52.8362 45.202Z" fill="#595F5C"/>
<path id="Vector_84" d="M53.6094 43.8024C54.1956 44.1576 54.6887 44.5187 55.088 44.8849C55.686 45.4339 55.9896 45.9241 55.9981 46.3556C56.0034 46.676 55.9536 46.9957 55.8486 47.3148C55.6782 47.8302 55.5083 48.2235 55.3392 48.4942C55.3234 48.4942 55.3084 48.4929 55.2939 48.4903L55.2684 48.4703L55.2631 48.4483C55.3097 48.374 55.368 48.1137 55.4382 47.6681C55.5293 47.0822 55.528 46.6088 55.4349 46.2477C55.1969 45.3351 54.7431 44.6763 54.0743 44.2706C53.5747 43.9684 52.6364 43.7694 51.2588 43.6751C51.4266 43.7804 51.6673 43.9135 51.98 44.0749C52.3263 44.2538 52.5695 44.3856 52.7092 44.4702C52.9426 44.6117 53.0508 44.7144 53.0337 44.777L52.9583 44.7841C52.862 44.726 52.8023 44.6898 52.78 44.6756C52.5807 44.5548 52.2705 44.3953 51.8502 44.1964C51.4299 43.9974 51.1198 43.8379 50.9204 43.7171C50.689 43.5769 50.5119 43.4135 50.3887 43.2269C50.4162 43.203 50.6778 43.2139 51.1735 43.2592C51.6155 43.2998 51.9341 43.336 52.1295 43.367C52.3249 43.398 52.5459 43.4439 52.7931 43.5033C53.1498 43.5892 53.4226 43.6887 53.6101 43.8024H53.6094Z" fill="#595F5C"/>
</g>
</g>
</g>
</g>
<defs>
<clipPath id="clip0_108_1303">
<rect width="71" height="66" fill="white"/>
</clipPath>
</defs>
</svg>
