<svg width="480" height="160" viewBox="0 0 480 160" fill="none" xmlns="http://www.w3.org/2000/svg">
<path d="M510.167 -107.352C490.409 -106.131 473.14 -118.327 454.616 -124.629C432.506 -132.153 408.18 -131.285 384.638 -133.25C326.264 -138.118 270.262 -160.865 211.634 -159.821C164.982 -158.989 120.133 -143.004 79.3812 -122.47C59.5247 -112.468 40.021 -101.05 25.751 -85.0656C3.85593 -60.5486 -3.37715 -25.9768 7.07055 4.08093C17.5183 34.1387 45.3919 58.7266 78.8912 67.5244C112.371 76.3045 148.144 69.8257 182.976 71.1356C217.808 72.4455 257.227 86.0583 267.087 116.258C268.91 121.869 269.635 127.87 272.732 133.021C277.711 141.323 287.845 145.837 297.411 149.661C316.464 157.237 337.163 164.23 357.627 160.866C376.817 157.715 392.714 145.979 410.512 138.792C445.227 124.79 488.292 129.499 518.302 150.582" stroke="white" stroke-width="3" stroke-miterlimit="10"/>
</svg>
