<svg width="28" height="28" viewBox="0 0 28 28" fill="none" xmlns="http://www.w3.org/2000/svg">
<g id="Frame">
<g id="Group">
<path id="Vector" d="M24.0097 9.21667H24.0039C23.7814 9.21553 23.5649 9.14531 23.3841 9.01573C23.2033 8.88615 23.0672 8.70361 22.9947 8.49333C22.9096 8.25515 22.8122 8.02151 22.703 7.79333C22.6076 7.59181 22.576 7.36594 22.6125 7.14597C22.649 6.926 22.7518 6.72243 22.9072 6.5625C23.0071 6.46309 23.0863 6.34492 23.1404 6.21478C23.1945 6.08464 23.2223 5.94509 23.2222 5.80417C23.2224 5.51781 23.1091 5.24304 22.9072 5.04L21.793 3.92583C21.591 3.72414 21.3172 3.61086 21.0318 3.61086C20.7463 3.61086 20.4725 3.72414 20.2705 3.92583C20.0683 4.12468 19.7958 4.23577 19.5122 4.235C19.3489 4.23505 19.1876 4.1992 19.0397 4.13C18.8115 4.02082 18.5779 3.92347 18.3397 3.83833C18.1294 3.76581 17.9469 3.62974 17.8173 3.44896C17.6877 3.26817 17.6175 3.05159 17.6164 2.82917V2.82333C17.6151 2.53905 17.5017 2.26675 17.3006 2.06573C17.0996 1.86471 16.8273 1.75123 16.543 1.75H14.9564C14.6721 1.75123 14.3998 1.86471 14.1988 2.06573C13.9977 2.26675 13.8843 2.53905 13.883 2.82333V2.82917C13.8819 3.05159 13.8117 3.26817 13.6821 3.44896C13.5525 3.62974 13.37 3.76581 13.1597 3.83833C12.9215 3.92347 12.6879 4.02082 12.4597 4.13C12.2582 4.2255 12.0323 4.25712 11.8123 4.22063C11.5923 4.18414 11.3888 4.08128 11.2289 3.92583C11.1295 3.82595 11.0113 3.74669 10.8811 3.69263C10.751 3.63858 10.6115 3.61078 10.4705 3.61083C10.1842 3.61058 9.90938 3.72385 9.70637 3.92583L8.5922 5.04C8.39051 5.24201 8.27723 5.51579 8.27723 5.80125C8.27723 6.08671 8.39051 6.36049 8.5922 6.5625C8.79105 6.76473 8.90214 7.03722 8.90137 7.32083C8.90134 7.48412 8.8655 7.64541 8.79637 7.79333C8.68719 8.02151 8.58984 8.25515 8.5047 8.49333C8.43218 8.70361 8.29611 8.88615 8.11533 9.01573C7.93454 9.14531 7.71796 9.21553 7.49554 9.21667H7.4897C7.20542 9.2179 6.93312 9.33137 6.7321 9.5324C6.53108 9.73342 6.4176 10.0057 6.41637 10.29V11.8767C6.4176 12.161 6.53108 12.4332 6.7321 12.6343C6.93312 12.8353 7.20542 12.9488 7.4897 12.95H7.49554C7.71796 12.9511 7.93454 13.0214 8.11533 13.1509C8.29611 13.2805 8.43218 13.4631 8.5047 13.6733C8.58984 13.9115 8.68719 14.1452 8.79637 14.3733C8.88596 14.5632 8.91876 14.7748 8.89081 14.9829C8.86287 15.1909 8.77538 15.3864 8.63887 15.5458L9.32137 15.0908C9.84707 14.7366 10.4667 14.5477 11.1005 14.5483H12.2065C11.4896 13.8163 11.0171 12.8803 10.8538 11.8688C10.6906 10.8573 10.8446 9.82006 11.2948 8.89969C11.745 7.97932 12.4692 7.22099 13.3679 6.72894C14.2666 6.2369 15.2956 6.0353 16.3136 6.15187C17.3315 6.26844 18.2883 6.69744 19.0525 7.37991C19.8167 8.06238 20.3507 8.9648 20.5812 9.96311C20.8117 10.9614 20.7273 12.0066 20.3396 12.955C19.9519 13.9034 19.2799 14.7084 18.4161 15.2594C18.6675 15.5508 18.8279 15.9096 18.8775 16.2912C18.9272 16.6728 18.8639 17.0606 18.6955 17.4067L22.6739 14.4492C22.6799 14.4226 22.6898 14.3971 22.703 14.3733C22.8122 14.1452 22.9096 13.9115 22.9947 13.6733C23.0672 13.4631 23.2033 13.2805 23.3841 13.1509C23.5649 13.0214 23.7814 12.9511 24.0039 12.95H24.0097C24.294 12.9488 24.5663 12.8353 24.7673 12.6343C24.9683 12.4332 25.0818 12.161 25.083 11.8767V10.29C25.0818 10.0057 24.9683 9.73342 24.7673 9.5324C24.5663 9.33137 24.294 9.2179 24.0097 9.21667ZM10.5493 24.3437L8.55487 25.9391C8.44658 26.0258 8.31094 26.0711 8.17228 26.0668C8.03362 26.0625 7.90103 26.009 7.79829 25.9158L2.25545 20.8769C2.193 20.8202 2.1436 20.7505 2.11068 20.6728C2.07775 20.5951 2.06208 20.5112 2.06474 20.4268C2.06741 20.3425 2.08834 20.2597 2.1261 20.1842C2.16386 20.1088 2.21754 20.0424 2.28345 19.9897L4.27787 18.3943C4.38616 18.3075 4.5218 18.2623 4.66046 18.2665C4.79912 18.2708 4.93172 18.3244 5.03445 18.4176L10.5773 23.4564C10.6397 23.5132 10.6891 23.5828 10.7221 23.6605C10.755 23.7382 10.7707 23.8222 10.768 23.9065C10.7653 23.9909 10.7444 24.0736 10.7066 24.1491C10.6689 24.2246 10.6152 24.291 10.5493 24.3437Z" fill="#15A570"/>
<path id="Vector_2" d="M26.4669 15.7652C26.43 15.4997 26.3284 15.2474 26.171 15.0304C26.0137 14.8134 25.8054 14.6385 25.5645 14.5209C25.3168 14.3966 25.042 14.3361 24.765 14.3446C24.488 14.3532 24.2174 14.4306 23.9779 14.5699L18.47 18.6655C18.1827 18.8282 17.8581 18.9136 17.5279 18.9134H15.1829C15.098 18.9171 15.0132 18.9035 14.9336 18.8735C14.8541 18.8435 14.7814 18.7978 14.72 18.739C14.6586 18.6801 14.6098 18.6095 14.5764 18.5313C14.543 18.4531 14.5258 18.369 14.5258 18.284C14.5258 18.199 14.543 18.1148 14.5764 18.0367C14.6098 17.9585 14.6586 17.8878 14.72 17.829C14.7814 17.7702 14.8541 17.7245 14.9336 17.6945C15.0132 17.6645 15.098 17.6509 15.1829 17.6546H16.9184C17.063 17.6546 17.2061 17.6261 17.3397 17.5707C17.4733 17.5154 17.5947 17.4342 17.6969 17.332C17.7991 17.2297 17.8802 17.1083 17.9355 16.9747C17.9908 16.841 18.0192 16.6978 18.0191 16.5532V16.5387C18.0189 16.2428 17.9013 15.9591 17.692 15.75C17.4828 15.5408 17.199 15.4233 16.9032 15.4233H11.6298C11.2034 15.4235 10.7852 15.5405 10.4206 15.7617L4.66602 19.25L9.79177 23.1677H18.0973C18.9624 23.1682 19.7967 22.8464 20.4376 22.2652L25.8171 17.367C26.0527 17.1773 26.2361 16.9307 26.3498 16.6504C26.4635 16.3701 26.5038 16.0654 26.4669 15.7652Z" fill="#15A570"/>
</g>
</g>
</svg>
