<svg width="29" height="28" viewBox="0 0 29 28" fill="none" xmlns="http://www.w3.org/2000/svg">
<g id="Frame" clip-path="url(#clip0_108_1406)">
<g id="Group">
<path id="Vector" d="M14.3337 4.66667C13.0468 4.66667 12.0003 3.62017 12.0003 2.33333C12.0003 1.0465 13.0468 0 14.3337 0C15.6205 0 16.667 1.0465 16.667 2.33333C16.667 3.62017 15.6205 4.66667 14.3337 4.66667ZM18.1253 9.33333H10.542C10.3099 9.33333 10.0874 9.24115 9.92327 9.07705C9.75918 8.91296 9.66699 8.6904 9.66699 8.45833C9.66699 7.0105 10.8453 5.83333 12.292 5.83333H16.3753C17.822 5.83333 19.0003 7.0105 19.0003 8.45833C19.0003 8.6904 18.9081 8.91296 18.744 9.07705C18.5799 9.24115 18.3574 9.33333 18.1253 9.33333Z" fill="#15A570"/>
<path id="Vector_2" d="M23.667 23.3333C24.6335 23.3333 25.417 22.5498 25.417 21.5833C25.417 20.6168 24.6335 19.8333 23.667 19.8333C22.7005 19.8333 21.917 20.6168 21.917 21.5833C21.917 22.5498 22.7005 23.3333 23.667 23.3333Z" fill="#15A570"/>
<path id="Vector_3" d="M26.292 28H21.042C20.8099 28 20.5874 27.9078 20.4233 27.7437C20.2592 27.5796 20.167 27.3571 20.167 27.125C20.167 25.6772 21.3453 24.5 22.792 24.5H24.542C25.9887 24.5 27.167 25.6772 27.167 27.125C27.167 27.3571 27.0748 27.5796 26.9107 27.7437C26.7466 27.9078 26.5241 28 26.292 28Z" fill="#15A570"/>
<path id="Vector_4" d="M14.333 23.3333C15.2995 23.3333 16.083 22.5498 16.083 21.5833C16.083 20.6168 15.2995 19.8333 14.333 19.8333C13.3665 19.8333 12.583 20.6168 12.583 21.5833C12.583 22.5498 13.3665 23.3333 14.333 23.3333Z" fill="#15A570"/>
<path id="Vector_5" d="M16.958 28H11.708C11.4759 28 11.2534 27.9078 11.0893 27.7437C10.9252 27.5796 10.833 27.3571 10.833 27.125C10.833 25.6772 12.0113 24.5 13.458 24.5H15.208C16.6547 24.5 17.833 25.6772 17.833 27.125C17.833 27.3571 17.7408 27.5796 17.5767 27.7437C17.4126 27.9078 17.1901 28 16.958 28Z" fill="#15A570"/>
<path id="Vector_6" d="M5 23.3333C5.9665 23.3333 6.75 22.5498 6.75 21.5833C6.75 20.6168 5.9665 19.8333 5 19.8333C4.0335 19.8333 3.25 20.6168 3.25 21.5833C3.25 22.5498 4.0335 23.3333 5 23.3333Z" fill="#15A570"/>
<path id="Vector_7" d="M7.625 28H2.375C2.14294 28 1.92038 27.9078 1.75628 27.7437C1.59219 27.5796 1.5 27.3571 1.5 27.125C1.5 25.6772 2.67833 24.5 4.125 24.5H5.875C7.32167 24.5 8.5 25.6772 8.5 27.125C8.5 27.3571 8.40781 27.5796 8.24372 27.7437C8.07962 27.9078 7.85706 28 7.625 28ZM21.3333 10.5H7.33333C7.02391 10.5 6.72717 10.6229 6.50838 10.8417C6.28958 11.0605 6.16667 11.3572 6.16667 11.6667C6.16667 11.9761 6.28958 12.2728 6.50838 12.4916C6.72717 12.7104 7.02391 12.8333 7.33333 12.8333H8.03917L8.80333 19.9617C8.88383 20.7632 9.50683 21 10.3095 21C10.5953 19.026 12.2823 17.5 14.3333 17.5C16.3843 17.5 18.0713 19.026 18.3572 21C19.1598 21 19.7828 20.7632 19.8633 19.9617L20.6275 12.8333H21.3333C21.6428 12.8333 21.9395 12.7104 22.1583 12.4916C22.3771 12.2728 22.5 11.9761 22.5 11.6667C22.5 11.3572 22.3771 11.0605 22.1583 10.8417C21.9395 10.6229 21.6428 10.5 21.3333 10.5Z" fill="#15A570"/>
</g>
</g>
<defs>
<clipPath id="clip0_108_1406">
<rect width="28" height="28" fill="white" transform="translate(0.333008)"/>
</clipPath>
</defs>
</svg>
