<svg width="1059" height="217" viewBox="0 0 1059 217" fill="none" xmlns="http://www.w3.org/2000/svg">
<g style="mix-blend-mode:screen">
<mask id="mask0_278_138" style="mask-type:alpha" maskUnits="userSpaceOnUse" x="0" y="0" width="1059" height="217">
<rect width="1059" height="217" rx="20" fill="#15A570"/>
</mask>
<g mask="url(#mask0_278_138)">
<mask id="mask1_278_138" style="mask-type:luminance" maskUnits="userSpaceOnUse" x="1" y="-95" width="1059" height="408">
<path d="M1059.53 -95H1V312.127H1059.53V-95Z" fill="white"/>
</mask>
<g mask="url(#mask1_278_138)">
<g style="mix-blend-mode:color-burn">
<path d="M516.024 205.136L487.816 253.994H431.401L403.193 205.136L431.401 156.278H487.816L516.024 205.136ZM486.854 252.326L514.099 205.136L486.854 157.946H432.363L405.118 205.136L432.363 252.326H486.854Z" fill="white" fill-opacity="0.04"/>
<path d="M516.024 109.087L487.816 157.945H431.401L403.193 109.087L431.401 60.2285H487.816L516.024 109.087ZM486.854 156.277L514.099 109.087L486.854 61.8965H432.363L405.118 109.087L432.363 156.277H486.854Z" fill="white" fill-opacity="0.04"/>
<path d="M599.203 253.157L570.996 302.012H514.581L486.373 253.157L514.581 204.299H570.996L599.203 253.157ZM570.033 300.344L597.278 253.157L570.033 205.967H515.543L488.298 253.157L515.543 300.344H570.033Z" fill="white" fill-opacity="0.04"/>
<path d="M599.203 157.113L570.996 205.971H514.581L486.373 157.113L514.581 108.255H570.996L599.203 157.113ZM570.033 204.303L597.278 157.113L570.033 109.923H515.543L488.298 157.113L515.543 204.303H570.033Z" fill="white" fill-opacity="0.04"/>
<path d="M599.203 61.0641L570.996 109.922H514.581L486.373 61.0641L514.581 12.2061H570.996L599.203 61.0641ZM570.033 108.254L597.278 61.0641L570.033 13.8741H515.543L488.298 61.0641L515.543 108.254H570.033Z" fill="white" fill-opacity="0.04"/>
<path d="M682.382 205.136L654.174 253.994H597.759L569.552 205.136L597.759 156.278H654.174L682.382 205.136ZM653.212 252.326L680.457 205.136L653.212 157.946H598.722L571.477 205.136L598.722 252.326H653.212Z" fill="white" fill-opacity="0.04"/>
<path d="M682.382 109.087L654.174 157.945H597.759L569.552 109.087L597.759 60.2285H654.174L682.382 109.087ZM653.212 156.277L680.457 109.087L653.212 61.8965H598.722L571.477 109.087L598.722 156.277H653.212Z" fill="white" fill-opacity="0.04"/>
<path d="M765.562 253.157L737.354 302.012H680.939L652.731 253.157L680.939 204.299H737.354L765.562 253.157ZM736.392 300.344L763.637 253.157L736.392 205.967H681.901L654.656 253.157L681.901 300.344H736.392Z" fill="white" fill-opacity="0.04"/>
<path d="M765.562 157.113L737.354 205.971H680.939L652.731 157.113L680.939 108.255H737.354L765.562 157.113ZM736.392 204.303L763.637 157.113L736.392 109.923H681.901L654.656 157.113L681.901 204.303H736.392Z" fill="white" fill-opacity="0.04"/>
<path d="M765.562 61.0641L737.354 109.922H680.939L652.731 61.0641L680.939 12.2061H737.354L765.562 61.0641ZM736.392 108.254L763.637 61.0641L736.392 13.8741H681.901L654.656 61.0641L681.901 108.254H736.392Z" fill="white" fill-opacity="0.04"/>
<path d="M848.74 205.136L820.532 253.994H764.117L735.909 205.136L764.117 156.278H820.532L848.74 205.136ZM819.57 252.326L846.815 205.136L819.57 157.946H765.079L737.834 205.136L765.079 252.326H819.57Z" fill="white" fill-opacity="0.04"/>
<path d="M848.74 109.087L820.532 157.945H764.117L735.909 109.087L764.117 60.2285H820.532L848.74 109.087ZM819.57 156.277L846.815 109.087L819.57 61.8965H765.079L737.834 109.087L765.079 156.277H819.57Z" fill="white" fill-opacity="0.04"/>
<path d="M848.74 13.0407L820.532 61.8988H764.117L735.909 13.0407L764.117 -35.8174H820.532L848.74 13.0407ZM819.57 60.2307L846.815 13.0407L819.57 -34.1494H765.079L737.834 13.0407L765.079 60.2307H819.57Z" fill="white" fill-opacity="0.04"/>
<path d="M931.92 253.157L903.713 302.012H847.297L819.09 253.157L847.297 204.299H903.713L931.92 253.157ZM902.75 300.344L929.995 253.157L902.75 205.967H848.26L821.015 253.157L848.26 300.344H902.75Z" fill="white" fill-opacity="0.04"/>
<path d="M931.92 157.113L903.713 205.971H847.297L819.09 157.113L847.297 108.255H903.713L931.92 157.113ZM902.75 204.303L929.995 157.113L902.75 109.923H848.26L821.015 157.113L848.26 204.303H902.75Z" fill="white" fill-opacity="0.04"/>
<path d="M931.92 61.0641L903.713 109.922H847.297L819.09 61.0641L847.297 12.2061H903.713L931.92 61.0641ZM902.75 108.254L929.995 61.0641L902.75 13.8741H848.26L821.015 61.0641L848.26 108.254H902.75Z" fill="white" fill-opacity="0.04"/>
<path d="M931.92 -34.9847L903.713 13.8734H847.297L819.09 -34.9847L847.297 -83.8428H903.713L931.92 -34.9847ZM902.75 12.2054L929.995 -34.9847L902.75 -82.1748H848.26L821.015 -34.9847L848.26 12.2054H902.75Z" fill="white" fill-opacity="0.04"/>
<path d="M1015.1 205.136L986.89 253.994H930.475L902.268 205.136L930.475 156.278H986.89L1015.1 205.136ZM985.928 252.326L1013.17 205.136L985.928 157.946H931.438L904.192 205.136L931.438 252.326H985.928Z" fill="white" fill-opacity="0.04"/>
<path d="M1015.1 109.087L986.89 157.945H930.475L902.268 109.087L930.475 60.2285H986.89L1015.1 109.087ZM985.928 156.277L1013.17 109.087L985.928 61.8965H931.438L904.192 109.087L931.438 156.277H985.928Z" fill="white" fill-opacity="0.04"/>
<path d="M1015.1 13.0407L986.89 61.8988H930.475L902.268 13.0407L930.475 -35.8174H986.89L1015.1 13.0407ZM985.928 60.2307L1013.17 13.0407L985.928 -34.1494H931.438L904.192 13.0407L931.438 60.2307H985.928Z" fill="white" fill-opacity="0.04"/>
<path d="M1098.28 253.157L1070.07 302.012H1013.66L985.448 253.157L1013.66 204.299H1070.07L1098.28 253.157ZM1069.11 300.344L1096.35 253.157L1069.11 205.967H1014.62L987.373 253.157L1014.62 300.344H1069.11Z" fill="white" fill-opacity="0.04"/>
<path d="M1098.28 157.113L1070.07 205.971H1013.66L985.448 157.113L1013.66 108.255H1070.07L1098.28 157.113ZM1069.11 204.303L1096.35 157.113L1069.11 109.923H1014.62L987.373 157.113L1014.62 204.303H1069.11Z" fill="white" fill-opacity="0.04"/>
<path d="M1098.28 61.0641L1070.07 109.922H1013.66L985.448 61.0641L1013.66 12.2061H1070.07L1098.28 61.0641ZM1069.11 108.254L1096.35 61.0641L1069.11 13.8741H1014.62L987.373 61.0641L1014.62 108.254H1069.11Z" fill="white" fill-opacity="0.04"/>
<path d="M1098.28 -34.9847L1070.07 13.8734H1013.66L985.448 -34.9847L1013.66 -83.8428H1070.07L1098.28 -34.9847ZM1069.11 12.2054L1096.35 -34.9847L1069.11 -82.1748H1014.62L987.373 -34.9847L1014.62 12.2054H1069.11Z" fill="white" fill-opacity="0.04"/>
</g>
<g style="mix-blend-mode:color-burn">
<path d="M301.932 -24.2948L318.37 -52.7686H351.248L367.686 -24.2948L351.248 4.17888H318.37L301.932 -24.2948ZM318.93 -51.7968L303.052 -24.2948L318.93 3.20718H350.688L366.566 -24.2948L350.688 -51.7968H318.93Z" fill="white" fill-opacity="0.04"/>
<path d="M301.932 31.6807L318.37 3.20703H351.248L367.686 31.6807L351.248 60.1545H318.37L301.932 31.6807ZM318.93 4.17873L303.052 31.6807L318.93 59.1828H350.688L366.566 31.6807L350.688 4.17873H318.93Z" fill="white" fill-opacity="0.04"/>
<path d="M301.932 87.6563L318.37 59.1826H351.248L367.686 87.6563L351.248 116.13H318.37L301.932 87.6563ZM318.93 60.1543L303.052 87.6563L318.93 115.158H350.688L366.566 87.6563L350.688 60.1543H318.93Z" fill="white" fill-opacity="0.04"/>
<path d="M253.454 3.69344L269.893 -24.7803H302.77L319.209 3.69344L302.77 32.1672H269.893L253.454 3.69344ZM270.453 -23.8086L254.574 3.69344L270.453 31.1955H302.21L318.089 3.69344L302.21 -23.8086H270.453Z" fill="white" fill-opacity="0.04"/>
<path d="M253.454 59.669L269.893 31.1953H302.77L319.209 59.669L302.77 88.1427H269.893L253.454 59.669ZM270.453 32.167L254.574 59.669L270.453 87.171H302.21L318.089 59.669L302.21 32.167H270.453Z" fill="white" fill-opacity="0.04"/>
<path d="M253.454 115.645L269.893 87.1709H302.77L319.209 115.645L302.77 144.118H269.893L253.454 115.645ZM270.453 88.1426L254.574 115.645L270.453 143.147H302.21L318.089 115.645L302.21 88.1426H270.453Z" fill="white" fill-opacity="0.04"/>
<path d="M204.98 -24.2948L221.419 -52.7686H254.297L270.735 -24.2948L254.297 4.17888H221.419L204.98 -24.2948ZM221.979 -51.7968L206.101 -24.2948L221.979 3.20718H253.736L269.615 -24.2948L253.736 -51.7968H221.979Z" fill="white" fill-opacity="0.04"/>
<path d="M204.98 31.6807L221.419 3.20703H254.297L270.735 31.6807L254.297 60.1545H221.419L204.98 31.6807ZM221.979 4.17873L206.101 31.6807L221.979 59.1828H253.736L269.615 31.6807L253.736 4.17873H221.979Z" fill="white" fill-opacity="0.04"/>
<path d="M204.98 87.6563L221.419 59.1826H254.297L270.735 87.6563L254.297 116.13H221.419L204.98 87.6563ZM221.979 60.1543L206.101 87.6563L221.979 115.158H253.736L269.615 87.6563L253.736 60.1543H221.979Z" fill="white" fill-opacity="0.04"/>
<path d="M156.502 3.69344L172.941 -24.7803H205.818L222.257 3.69344L205.818 32.1672H172.941L156.502 3.69344ZM173.501 -23.8086L157.622 3.69344L173.501 31.1955H205.258L221.136 3.69344L205.258 -23.8086H173.501Z" fill="white" fill-opacity="0.04"/>
<path d="M156.502 59.669L172.941 31.1953H205.818L222.257 59.669L205.818 88.1427H172.941L156.502 59.669ZM173.501 32.167L157.622 59.669L173.501 87.171H205.258L221.136 59.669L205.258 32.167H173.501Z" fill="white" fill-opacity="0.04"/>
<path d="M156.502 115.645L172.941 87.1709H205.818L222.257 115.645L205.818 144.118H172.941L156.502 115.645ZM173.501 88.1426L157.622 115.645L173.501 143.147H205.258L221.136 115.645L205.258 88.1426H173.501Z" fill="white" fill-opacity="0.04"/>
<path d="M108.029 -24.2948L124.468 -52.7686H157.345L173.784 -24.2948L157.345 4.17888H124.468L108.029 -24.2948ZM125.028 -51.7968L109.15 -24.2948L125.028 3.20718H156.785L172.664 -24.2948L156.785 -51.7968H125.028Z" fill="white" fill-opacity="0.04"/>
<path d="M108.029 31.6807L124.468 3.20703H157.345L173.784 31.6807L157.345 60.1545H124.468L108.029 31.6807ZM125.028 4.17873L109.15 31.6807L125.028 59.1828H156.785L172.664 31.6807L156.785 4.17873H125.028Z" fill="white" fill-opacity="0.04"/>
<path d="M108.029 87.6563L124.468 59.1826H157.345L173.784 87.6563L157.345 116.13H124.468L108.029 87.6563ZM125.028 60.1543L109.15 87.6563L125.028 115.158H156.785L172.664 87.6563L156.785 60.1543H125.028Z" fill="white" fill-opacity="0.04"/>
<path d="M108.029 143.634L124.468 115.16H157.345L173.784 143.634L157.345 172.108H124.468L108.029 143.634ZM125.028 116.132L109.15 143.634L125.028 171.136H156.785L172.664 143.634L156.785 116.132H125.028Z" fill="white" fill-opacity="0.04"/>
<path d="M108.029 199.608L124.468 171.135H157.345L173.784 199.608L157.345 228.082H124.468L108.029 199.608ZM125.028 172.106L109.15 199.608L125.028 227.11H156.785L172.664 199.608L156.785 172.106H125.028Z" fill="white" fill-opacity="0.04"/>
<path d="M59.5508 3.69344L75.9895 -24.7803H108.867L125.306 3.69344L108.867 32.1672H75.9895L59.5508 3.69344ZM76.5496 -23.8086L60.671 3.69344L76.5496 31.1955H108.307L124.185 3.69344L108.307 -23.8086H76.5496Z" fill="white" fill-opacity="0.04"/>
<path d="M59.5508 59.669L75.9895 31.1953H108.867L125.306 59.669L108.867 88.1427H75.9895L59.5508 59.669ZM76.5496 32.167L60.671 59.669L76.5496 87.171H108.307L124.185 59.669L108.307 32.167H76.5496Z" fill="white" fill-opacity="0.04"/>
<path d="M59.5508 115.645L75.9895 87.1709H108.867L125.306 115.645L108.867 144.118H75.9895L59.5508 115.645ZM76.5496 88.1426L60.671 115.645L76.5496 143.147H108.307L124.185 115.645L108.307 88.1426H76.5496Z" fill="white" fill-opacity="0.04"/>
<path d="M59.5508 171.62L75.9895 143.146H108.867L125.306 171.62L108.867 200.094H75.9895L59.5508 171.62ZM76.5496 144.118L60.671 171.62L76.5496 199.122H108.307L124.185 171.62L108.307 144.118H76.5496Z" fill="white" fill-opacity="0.04"/>
<path d="M59.5508 227.597L75.9895 199.123H108.867L125.306 227.597L108.867 256.07H75.9895L59.5508 227.597ZM76.5496 200.095L60.671 227.597L76.5496 255.099H108.307L124.185 227.597L108.307 200.095H76.5496Z" fill="white" fill-opacity="0.04"/>
<path d="M11.0771 -24.2948L27.5158 -52.7686H60.3932L76.8319 -24.2948L60.3932 4.17888H27.5158L11.0771 -24.2948ZM28.076 -51.7968L12.1974 -24.2948L28.076 3.20718H59.8331L75.7117 -24.2948L59.8331 -51.7968H28.076Z" fill="white" fill-opacity="0.04"/>
<path d="M11.0771 31.6807L27.5158 3.20703H60.3932L76.8319 31.6807L60.3932 60.1545H27.5158L11.0771 31.6807ZM28.076 4.17873L12.1974 31.6807L28.076 59.1828H59.8331L75.7117 31.6807L59.8331 4.17873H28.076Z" fill="white" fill-opacity="0.04"/>
<path d="M11.0771 87.6563L27.5158 59.1826H60.3932L76.8319 87.6563L60.3932 116.13H27.5158L11.0771 87.6563ZM28.076 60.1543L12.1974 87.6563L28.076 115.158H59.8331L75.7117 87.6563L59.8331 60.1543H28.076Z" fill="white" fill-opacity="0.04"/>
<path d="M11.0771 143.634L27.5158 115.16H60.3932L76.8319 143.634L60.3932 172.108H27.5158L11.0771 143.634ZM28.076 116.132L12.1974 143.634L28.076 171.136H59.8331L75.7117 143.634L59.8331 116.132H28.076Z" fill="white" fill-opacity="0.04"/>
<path d="M11.0771 199.608L27.5158 171.135H60.3932L76.8319 199.608L60.3932 228.082H27.5158L11.0771 199.608ZM28.076 172.106L12.1974 199.608L28.076 227.11H59.8331L75.7117 199.608L59.8331 172.106H28.076Z" fill="white" fill-opacity="0.04"/>
<path d="M-37.4014 3.69344L-20.9627 -24.7803H11.9147L28.3534 3.69344L11.9147 32.1672H-20.9627L-37.4014 3.69344ZM-20.4025 -23.8086L-36.278 3.69344L-20.3995 31.1955H11.3577L27.2362 3.69344L11.3577 -23.8086H-20.4025Z" fill="white" fill-opacity="0.04"/>
<path d="M-37.4014 59.669L-20.9627 31.1953H11.9147L28.3534 59.669L11.9147 88.1427H-20.9627L-37.4014 59.669ZM-20.4025 32.167L-36.278 59.669L-20.3995 87.171H11.3577L27.2362 59.669L11.3577 32.167H-20.4025Z" fill="white" fill-opacity="0.04"/>
<path d="M-37.4014 115.645L-20.9627 87.1709H11.9147L28.3534 115.645L11.9147 144.118H-20.9627L-37.4014 115.645ZM-20.4025 88.1426L-36.278 115.645L-20.3995 143.147H11.3577L27.2362 115.645L11.3577 88.1426H-20.4025Z" fill="white" fill-opacity="0.04"/>
<path d="M-37.4014 171.62L-20.9627 143.146H11.9147L28.3534 171.62L11.9147 200.094H-20.9627L-37.4014 171.62ZM-20.4025 144.118L-36.278 171.62L-20.3995 199.122H11.3577L27.2362 171.62L11.3577 144.118H-20.4025Z" fill="white" fill-opacity="0.04"/>
<path d="M-37.4014 227.597L-20.9627 199.123H11.9147L28.3534 227.597L11.9147 256.07H-20.9627L-37.4014 227.597ZM-20.4025 200.095L-36.278 227.597L-20.3995 255.099H11.3577L27.2362 227.597L11.3577 200.095H-20.4025Z" fill="white" fill-opacity="0.04"/>
</g>
</g>
</g>
</g>
</svg>
