<svg width="29" height="28" viewBox="0 0 29 28" fill="none" xmlns="http://www.w3.org/2000/svg">
<g id="Frame" clip-path="url(#clip0_108_1423)">
<g id="Group">
<path id="Vector" d="M28.0246 3.91346L13.924 0.483461C13.9 0.462246 13.8716 0.446564 13.8409 0.437523C13.8106 0.43102 13.7793 0.43102 13.749 0.437523L12.0406 0.024086C11.9324 -0.0036607 11.8198 -0.00961345 11.7093 0.00657419C11.5988 0.0227618 11.4926 0.0607666 11.3969 0.118377C11.3012 0.175986 11.218 0.252051 11.152 0.342143C11.086 0.432235 11.0385 0.534555 11.0125 0.643148L10.7412 1.75002H11.1918L11.439 0.745961C11.4516 0.694209 11.4742 0.645445 11.5057 0.602465C11.5371 0.559485 11.5767 0.523134 11.6223 0.495496C11.6678 0.467858 11.7183 0.449476 11.771 0.441405C11.8236 0.433334 11.8773 0.435732 11.929 0.448461L13.5237 0.835648L13.305 1.75002H13.7556L13.9481 0.940649L17.2775 1.75002H18.6031C18.8198 1.75018 19.0331 1.804 19.224 1.90668C19.4148 2.00936 19.5773 2.1577 19.6968 2.33846L27.9218 4.33784C27.9732 4.35014 28.0217 4.3725 28.0644 4.40362C28.1071 4.43474 28.1432 4.474 28.1706 4.51914C28.1981 4.56429 28.2163 4.61442 28.2243 4.66665C28.2323 4.71888 28.2299 4.77218 28.2171 4.82346L22.7068 27.2519C22.6943 27.3037 22.6716 27.3524 22.6402 27.3954C22.6087 27.4384 22.5691 27.4747 22.5236 27.5024C22.4781 27.53 22.4275 27.5484 22.3749 27.5565C22.3223 27.5645 22.2685 27.5621 22.2168 27.5494L19.9156 26.9916V27.1228C19.9154 27.2268 19.903 27.3303 19.8784 27.4313L22.1031 27.976C22.3201 28.0287 22.5491 27.9931 22.7398 27.877C22.9306 27.7609 23.0674 27.5739 23.1203 27.3569L28.6415 4.92846C28.6679 4.8213 28.6729 4.70998 28.6562 4.60088C28.6395 4.49179 28.6014 4.38707 28.544 4.29276C28.4867 4.19844 28.4113 4.11638 28.3222 4.05129C28.2331 3.9862 28.1319 3.93936 28.0246 3.91346Z" fill="#15A570"/>
<path id="Vector_2" d="M18.6035 2.1875H3.72852V26.0312C3.72852 26.0893 3.70547 26.1449 3.66445 26.1859C3.62342 26.227 3.56778 26.25 3.50977 26.25C3.45175 26.25 3.39611 26.227 3.35509 26.1859C3.31406 26.1449 3.29102 26.0893 3.29102 26.0312V2.1875H1.54102C1.30895 2.1875 1.08639 2.27969 0.922297 2.44378C0.758203 2.60788 0.666016 2.83044 0.666016 3.0625L0.666016 27.125C0.666016 27.3571 0.758203 27.5796 0.922297 27.7437C1.08639 27.9078 1.30895 28 1.54102 28H18.6035C18.8356 28 19.0581 27.9078 19.2222 27.7437C19.3863 27.5796 19.4785 27.3571 19.4785 27.125V3.0625C19.4785 2.83044 19.3863 2.60788 19.2222 2.44378C19.0581 2.27969 18.8356 2.1875 18.6035 2.1875ZM3.50977 27.125C3.4665 27.125 3.42421 27.1122 3.38823 27.0881C3.35226 27.0641 3.32422 27.0299 3.30767 26.99C3.29111 26.95 3.28678 26.906 3.29522 26.8636C3.30366 26.8211 3.32449 26.7822 3.35509 26.7516C3.38568 26.721 3.42466 26.7001 3.46709 26.6917C3.50952 26.6833 3.55351 26.6876 3.59348 26.7042C3.63345 26.7207 3.66761 26.7487 3.69165 26.7847C3.71569 26.8207 3.72852 26.863 3.72852 26.9062C3.72852 26.9643 3.70547 27.0199 3.66445 27.0609C3.62342 27.102 3.56778 27.125 3.50977 27.125ZM7.64852 10.8019C7.64852 10.1894 7.69883 10.1894 7.88477 10.1894H10.3195V7.80062C10.3195 7.54469 10.3195 7.4375 10.932 7.4375H11.7195C12.332 7.4375 12.332 7.54469 12.332 7.80062V10.1916H14.7229C14.9788 10.1916 15.086 10.1916 15.086 10.8041V11.5106C15.086 12.1231 14.9788 12.1231 14.7229 12.1231H12.4151V14.6388C12.4151 14.8247 12.4151 14.875 11.8026 14.875H10.9276C10.3173 14.875 10.3173 14.8247 10.3173 14.6388V12.1209H7.88477C7.69883 12.1209 7.64852 12.1209 7.64852 11.5084V10.8019ZM14.8848 23.8438H7.88477C7.82675 23.8438 7.77111 23.8207 7.73009 23.7797C7.68906 23.7387 7.66602 23.683 7.66602 23.625C7.66602 23.567 7.68906 23.5113 7.73009 23.4703C7.77111 23.4293 7.82675 23.4062 7.88477 23.4062H14.8848C14.9428 23.4062 14.9984 23.4293 15.0394 23.4703C15.0805 23.5113 15.1035 23.567 15.1035 23.625C15.1035 23.683 15.0805 23.7387 15.0394 23.7797C14.9984 23.8207 14.9428 23.8438 14.8848 23.8438ZM14.8848 22.5312H7.88477C7.82675 22.5312 7.77111 22.5082 7.73009 22.4672C7.68906 22.4262 7.66602 22.3705 7.66602 22.3125C7.66602 22.2545 7.68906 22.1988 7.73009 22.1578C7.77111 22.1168 7.82675 22.0938 7.88477 22.0938H14.8848C14.9428 22.0938 14.9984 22.1168 15.0394 22.1578C15.0805 22.1988 15.1035 22.2545 15.1035 22.3125C15.1035 22.3705 15.0805 22.4262 15.0394 22.4672C14.9984 22.5082 14.9428 22.5312 14.8848 22.5312ZM14.8848 21.2188H7.88477C7.82675 21.2188 7.77111 21.1957 7.73009 21.1547C7.68906 21.1137 7.66602 21.058 7.66602 21C7.66602 20.942 7.68906 20.8863 7.73009 20.8453C7.77111 20.8043 7.82675 20.7812 7.88477 20.7812H14.8848C14.9428 20.7812 14.9984 20.8043 15.0394 20.8453C15.0805 20.8863 15.1035 20.942 15.1035 21C15.1035 21.058 15.0805 21.1137 15.0394 21.1547C14.9984 21.1957 14.9428 21.2188 14.8848 21.2188Z" fill="#15A570"/>
</g>
</g>
<defs>
<clipPath id="clip0_108_1423">
<rect width="28" height="28" fill="white" transform="translate(0.666016)"/>
</clipPath>
</defs>
</svg>
