<svg width="424" height="128" viewBox="0 0 424 128" fill="none" xmlns="http://www.w3.org/2000/svg">
<path d="M439.526 -79.5075C406.085 -92.7839 369.254 -97.0324 333.01 -101.139C305.039 -104.308 277.067 -107.476 249.095 -110.645C215.537 -114.451 181.626 -118.257 147.97 -115.194C113.902 -112.097 80.658 -101.883 51.5691 -85.5792C34.006 -75.737 17.5209 -63.2218 8.13173 -46.582C-1.25748 -29.9423 -2.29626 -8.57612 9.58236 6.70059C16.6194 15.7639 27.4198 21.9242 38.6908 26.2611C66.78 37.0239 98.1623 37.4841 128.427 41.0245C158.692 44.5826 190.623 52.5307 210.147 73.7198C221.143 85.6332 227.377 100.928 239.824 111.602C266.325 134.278 309.018 127.781 343.713 117.497C378.408 107.212 417.219 94.7496 449.856 109.513" stroke="white" stroke-miterlimit="10"/>
</svg>
